<svg width="332" height="403" viewBox="0 0 332 403" fill="none" xmlns="http://www.w3.org/2000/svg">
<g filter="url(#filter0_d_39_2432)">
<g clip-path="url(#clip0_39_2432)">
<rect x="23.8809" y="40.6453" width="207.2" height="273.81" rx="5.95238" transform="rotate(0.168029 23.8809 40.6453)" fill="white" fill-opacity="0.97"/>
<g clip-path="url(#clip1_39_2432)">
<path d="M40.3241 57.009L39.4872 56.1673L35.9053 59.7282L39.4663 63.3101L40.308 62.4733L37.5899 59.7332L40.3241 57.009Z" fill="#A7B2C0"/>
</g>
<path d="M57.473 62.7915L59.9641 56.9394L60.6965 56.9416L63.1451 62.8081L62.3639 62.8058L60.328 57.7054L58.2542 62.7938L57.473 62.7915ZM58.7481 60.8747L58.7499 60.2724L61.883 60.2816L61.8812 60.8838L58.7481 60.8747ZM65.3688 62.9123C65.0623 62.9114 64.7967 62.8415 64.5719 62.7025C64.3472 62.5634 64.1741 62.3649 64.0528 62.1069C63.9315 61.8488 63.8714 61.5407 63.8724 61.1827L63.8806 58.4157L64.5641 58.4177L64.5562 61.1318C64.5551 61.4898 64.6221 61.7816 64.7571 62.0072C64.892 62.23 65.1359 62.342 65.4885 62.343C65.7516 62.3438 65.9797 62.2766 66.1727 62.1416C66.3657 62.0065 66.5155 61.8035 66.6221 61.5325C66.7314 61.2616 66.7866 60.9226 66.7878 60.5157L66.7939 58.4243L67.4775 58.4263L67.4647 62.8208L66.8218 62.8189L66.8248 61.7854L66.8527 61.9645C66.738 62.2354 66.5529 62.4614 66.2974 62.6424C66.0446 62.8234 65.735 62.9134 65.3688 62.9123ZM70.4812 64.5142C69.8275 64.5123 69.3463 64.4187 69.0375 64.2333C68.7288 64.0506 68.575 63.7681 68.5762 63.3856C68.5768 63.1686 68.633 62.9748 68.7447 62.8042C68.8564 62.6336 69.0494 62.5026 69.3237 62.4112C69.2208 62.3485 69.1369 62.2655 69.0721 62.1623C69.0073 62.059 68.9751 61.9436 68.9755 61.8161C68.9759 61.6642 69.0238 61.5287 69.1191 61.4096C69.2144 61.2878 69.3503 61.2014 69.5267 61.1504C69.3101 61.0223 69.1411 60.8495 69.0196 60.6322C68.9009 60.4121 68.842 60.1569 68.8428 59.8667C68.8438 59.552 68.9137 59.2809 69.0527 59.0535C69.1945 58.8233 69.3944 58.6462 69.6524 58.5222C69.9132 58.3982 70.2227 58.3367 70.5807 58.3377C70.9388 58.3388 71.2479 58.4021 71.5079 58.5276C71.7707 58.6532 71.9722 58.8315 72.1126 59.0624C72.2557 59.2934 72.3268 59.5676 72.3259 59.885C72.325 60.197 72.2523 60.4667 72.1078 60.6941C71.9661 60.9188 71.7635 61.0932 71.5 61.2172C71.2365 61.3385 70.923 61.3986 70.5595 61.3976L70.1811 61.3965C69.8393 61.3955 69.6681 61.4967 69.6675 61.7001C69.667 61.8927 69.8322 61.9895 70.1631 61.9905L71.042 61.9931C71.3892 61.9941 71.6685 62.0356 71.8799 62.1176C72.0939 62.1969 72.2564 62.3005 72.3672 62.4283C72.4808 62.5534 72.5577 62.6893 72.598 62.8359C72.6382 62.9825 72.6582 63.1222 72.6578 63.2551C72.6565 63.6865 72.4996 64.0047 72.187 64.21C71.8745 64.4152 71.39 64.5169 70.7335 64.515L70.4812 64.5142ZM70.4828 63.969L70.7351 63.9697C71.5435 63.9721 71.9484 63.7318 71.9498 63.249C71.9504 63.0483 71.8776 62.8839 71.7315 62.756C71.5881 62.6281 71.3414 62.5636 70.9915 62.5626L70.2347 62.5604C69.9634 62.5596 69.7367 62.6145 69.5547 62.7252C69.3726 62.8332 69.2812 63.0119 69.2805 63.2615C69.2798 63.5002 69.3769 63.6768 69.5719 63.7913C69.7696 63.9086 70.0732 63.9678 70.4828 63.969ZM70.5732 60.9175C70.9177 60.9185 71.1824 60.8311 71.3674 60.6553C71.5524 60.4768 71.6454 60.2194 71.6463 59.883C71.6473 59.5494 71.5559 59.29 71.3719 59.105C71.188 58.92 70.9238 58.827 70.5793 58.826C70.2375 58.825 69.9755 58.9165 69.7932 59.1004C69.6109 59.2816 69.5192 59.5404 69.5183 59.8768C69.5173 60.2131 69.6074 60.4711 69.7886 60.6507C69.9698 60.8275 70.2314 60.9165 70.5732 60.9175ZM71.3037 58.7997L71.3049 58.3643C71.3055 58.1879 71.371 58.043 71.5015 57.9295C71.6321 57.8132 71.7842 57.7553 71.9578 57.7558L72.4867 57.7574L72.4851 58.327L72.0497 58.3258C71.9656 58.3255 71.9099 58.3403 71.8827 58.37C71.8582 58.3998 71.8458 58.4594 71.8456 58.549L71.8448 58.8012L71.3037 58.7997Z" fill="#A7B2C0"/>
<path d="M81.0477 58.9678L83.2732 61.2065L85.5119 58.9809L81.0477 58.9678Z" fill="#A7B2C0"/>
<g clip-path="url(#clip2_39_2432)">
<path d="M103.945 56.3563L103.104 57.1931L105.822 59.9332L103.088 62.6574L103.924 63.4991L107.506 59.9382L103.945 56.3563Z" fill="#A7B2C0"/>
</g>
<g clip-path="url(#clip3_39_2432)">
<path d="M147.762 57.3241L146.925 56.4823L143.343 60.0433L146.904 63.6252L147.746 62.7883L145.027 60.0482L147.762 57.3241Z" fill="#A7B2C0"/>
</g>
<path d="M164.903 63.1065L164.905 62.6264L166.969 60.8868C167.249 60.6489 167.477 60.4326 167.654 60.2378C167.834 60.043 167.966 59.8454 168.051 59.6449C168.135 59.4444 168.178 59.2207 168.179 58.9739C168.18 58.7053 168.133 58.48 168.038 58.298C167.947 58.1133 167.813 57.9745 167.637 57.8818C167.461 57.789 167.245 57.7423 166.99 57.7415C166.697 57.7407 166.46 57.7983 166.278 57.9144C166.098 58.0278 165.964 58.1821 165.873 58.3771C165.786 58.5722 165.734 58.7917 165.717 59.0358L164.936 58.7935C164.953 58.5331 165.048 58.277 165.219 58.0253C165.394 57.7735 165.632 57.5653 165.933 57.4007C166.235 57.2361 166.586 57.1544 166.988 57.1556C167.216 57.1563 167.445 57.1895 167.675 57.2553C167.906 57.321 168.117 57.4261 168.309 57.5704C168.504 57.7121 168.659 57.8983 168.775 58.1293C168.894 58.3575 168.953 58.6343 168.952 58.9599C168.951 59.4237 168.823 59.8384 168.57 60.2039C168.317 60.5666 167.963 60.9304 167.509 61.2953L165.914 62.5805L165.398 62.4814L169.056 62.4921L169.054 63.1187L164.903 63.1065ZM172.14 63.2254C171.462 63.2234 170.936 62.9574 170.564 62.4273C170.191 61.8946 170.006 61.1494 170.009 60.1918C170.011 59.2342 170.201 58.4915 170.577 57.9637C170.953 57.4331 171.48 57.1688 172.158 57.1708C172.839 57.1728 173.364 57.4401 173.734 57.9729C174.107 58.503 174.292 59.2468 174.289 60.2044C174.286 61.1619 174.097 61.906 173.721 62.4366C173.348 62.9645 172.821 63.2274 172.14 63.2254ZM172.142 62.6395C172.592 62.6408 172.933 62.4343 173.165 62.0199C173.397 61.6056 173.514 60.9996 173.516 60.2021C173.518 59.4046 173.405 58.798 173.176 58.3822C172.946 57.9665 172.606 57.758 172.156 57.7567C171.706 57.7554 171.365 57.9619 171.133 58.3763C170.901 58.7906 170.784 59.3966 170.782 60.1941C170.779 60.9916 170.893 61.5982 171.122 62.0139C171.352 62.4296 171.692 62.6382 172.142 62.6395ZM175.105 63.1365L175.106 62.6563L177.17 60.9168C177.45 60.6789 177.679 60.4625 177.856 60.2677C178.035 60.0729 178.168 59.8753 178.252 59.6748C178.337 59.4743 178.38 59.2506 178.38 59.0038C178.381 58.7352 178.334 58.51 178.24 58.3279C178.148 58.1432 178.014 58.0045 177.838 57.9117C177.662 57.819 177.447 57.7722 177.192 57.7715C176.899 57.7706 176.661 57.8282 176.479 57.9443C176.3 58.0577 176.165 58.212 176.075 58.407C175.988 58.6021 175.935 58.8217 175.918 59.0657L175.138 58.8234C175.155 58.563 175.249 58.3069 175.421 58.0552C175.595 57.8034 175.833 57.5952 176.135 57.4306C176.436 57.266 176.788 57.1843 177.189 57.1855C177.417 57.1862 177.646 57.2194 177.877 57.2852C178.107 57.351 178.318 57.456 178.511 57.6004C178.706 57.742 178.861 57.9283 178.977 58.1592C179.096 58.3874 179.155 58.6643 179.154 58.9898C179.152 59.4537 179.025 59.8683 178.772 60.2338C178.518 60.5965 178.164 60.9604 177.71 61.3252L176.116 62.6104L175.599 62.5113L179.257 62.522L179.255 63.1486L175.105 63.1365ZM182.167 63.2548C181.803 63.2538 181.467 63.1822 181.158 63.0403C180.852 62.8983 180.6 62.6928 180.403 62.4236C180.206 62.1518 180.09 61.8205 180.056 61.4298L180.797 61.2C180.826 61.6368 180.958 61.9912 181.193 62.2632C181.428 62.5324 181.749 62.6677 182.156 62.6689C182.522 62.6699 182.827 62.565 183.069 62.3541C183.313 62.1406 183.436 61.833 183.437 61.4316C183.438 61.2742 183.405 61.1073 183.337 60.9308C183.273 60.7515 183.155 60.5993 182.985 60.474C182.814 60.3487 182.571 60.2856 182.257 60.2847L181.451 60.2823L181.453 59.6638L182.193 59.666C182.538 59.667 182.801 59.5769 182.984 59.3957C183.169 59.2118 183.262 59.0045 183.262 58.774C183.263 58.5027 183.169 58.2705 182.979 58.0773C182.79 57.8842 182.522 57.7871 182.175 57.7861C181.746 57.7848 181.431 57.906 181.229 58.1495C181.031 58.3931 180.916 58.7318 180.885 59.1658L180.145 58.9317C180.162 58.6523 180.256 58.38 180.428 58.1146C180.6 57.8493 180.836 57.6302 181.138 57.4575C181.44 57.2848 181.794 57.199 182.201 57.2002C182.534 57.2012 182.837 57.2672 183.108 57.3982C183.381 57.5292 183.598 57.7089 183.757 57.9372C183.916 58.1628 183.996 58.4235 183.995 58.7192C183.994 58.9145 183.953 59.0947 183.871 59.26C183.789 59.4225 183.667 59.5618 183.504 59.678C183.341 59.7942 183.134 59.8804 182.884 59.9366C183.297 60.0111 183.62 60.187 183.855 60.4644C184.093 60.739 184.212 61.0568 184.211 61.4175C184.21 61.7431 184.151 62.0223 184.033 62.2552C183.919 62.4882 183.763 62.679 183.568 62.8276C183.372 62.9735 183.153 63.0814 182.912 63.1512C182.67 63.221 182.422 63.2556 182.167 63.2548Z" fill="#A7B2C0"/>
<path d="M192.485 59.2946L194.711 61.5332L196.95 59.3076L192.485 59.2946Z" fill="#A7B2C0"/>
<g clip-path="url(#clip4_39_2432)">
<path d="M215.383 56.6831L214.541 57.5199L217.259 60.2601L214.525 62.9842L215.362 63.826L218.944 60.265L215.383 56.6831Z" fill="#A7B2C0"/>
</g>
<path d="M41.7046 95.674C39.8285 95.6685 38.9549 94.7707 38.9585 93.5516L38.9586 93.4945L39.6444 93.4965L39.644 93.6203C39.6413 94.5346 40.2113 95.0315 41.7065 95.0359C42.9827 95.0396 43.5647 94.689 43.5668 93.9652C43.5689 93.2509 43.1411 92.9925 42.2083 92.7993L40.8567 92.5382C39.8192 92.3351 38.9919 91.8946 38.995 90.8374C38.9975 89.9708 39.743 89.0968 41.5715 89.1021C43.3715 89.1074 44.1687 90.0621 44.1653 91.224L44.1652 91.2812L43.4794 91.2792L43.4798 91.1649C43.4825 90.2411 42.9125 89.7442 41.522 89.7401C40.2554 89.7364 39.6829 90.0966 39.6809 90.7918C39.6787 91.5156 40.0971 91.7359 41.0394 91.9387L42.3815 92.2093C43.5237 92.4317 44.2556 92.9195 44.2527 93.91C44.25 94.8243 43.4761 95.6792 41.7046 95.674Z" fill="#0D080B"/>
<path d="M67.2114 95.6536L66.5352 95.6516L66.5539 89.2707L67.4777 89.2734L69.6083 93.4415L70.1668 94.6241L70.2144 94.6243L70.7702 93.4449L72.9158 89.2893L73.8491 89.2921L73.8304 95.673L73.1542 95.671L73.1674 91.1758L73.1889 90.3187L73.1318 90.3185L72.7293 91.1745L70.5934 95.2825L69.7744 95.2801L67.6626 91.1596L67.2556 90.3013L67.208 90.3012L67.2245 91.1583L67.2114 95.6536Z" fill="#0D080B"/>
<path d="M99.0932 95.747L98.417 95.745L98.4339 89.9831L95.8053 89.9754L95.8071 89.3564L101.731 89.3738L101.729 89.9928L99.1101 89.9851L99.0932 95.747Z" fill="#0D080B"/>
<path d="M125.423 95.8242L124.413 95.8213L122.585 89.4349L123.337 89.4371L124.591 93.8408L124.92 95.1466L124.977 95.1467L125.362 93.8431L126.861 89.4475L127.813 89.4503L129.438 93.8551L129.863 95.1611L129.911 95.1612L130.21 93.8573L131.337 89.4606L132.08 89.4628L130.413 95.8389L129.404 95.8359L127.864 91.679L127.363 90.1918L127.297 90.1916L126.845 91.676L125.423 95.8242Z" fill="#0D080B"/>
<path d="M156.236 95.9146L155.56 95.9126L155.576 90.1508L152.948 90.143L152.95 89.524L158.874 89.5414L158.872 90.1604L156.253 90.1527L156.236 95.9146Z" fill="#0D080B"/>
<path d="M182.868 95.9927L182.192 95.9907L182.211 89.6098L186.992 89.6238L186.99 90.2429L182.885 90.2308L182.878 92.6689L186.84 92.6806L186.838 93.2901L182.876 93.2785L182.868 95.9927Z" fill="#0D080B"/>
<path d="M213.132 96.1767C211.256 96.1712 210.383 95.2734 210.386 94.0544L210.386 93.9972L211.072 93.9993L211.072 94.1231C211.069 95.0373 211.639 95.5343 213.134 95.5386C214.411 95.5424 214.992 95.1917 214.995 94.4679C214.997 93.7536 214.569 93.4952 213.636 93.302L212.285 93.0409C211.247 92.8379 210.42 92.3973 210.423 91.3402C210.425 90.4735 211.171 89.5995 212.999 89.6049C214.799 89.6102 215.597 90.5649 215.593 91.7268L215.593 91.7839L214.907 91.7819L214.908 91.6676C214.91 90.7438 214.34 90.2469 212.95 90.2428C211.683 90.2391 211.111 90.5994 211.109 91.2946C211.107 92.0184 211.525 92.2387 212.467 92.4414L213.809 92.712C214.951 92.9344 215.683 93.4223 215.68 94.4128C215.678 95.327 214.904 96.1819 213.132 96.1767Z" fill="#0D080B"/>
<path d="M39.6503 124.644L39.6519 124.096L42.0108 122.107C42.3309 121.836 42.592 121.588 42.7942 121.366C42.9995 121.143 43.1505 120.917 43.2473 120.688C43.344 120.459 43.3928 120.203 43.3937 119.921C43.3946 119.614 43.3411 119.357 43.2332 119.149C43.1284 118.938 42.9754 118.779 42.7742 118.673C42.573 118.567 42.3267 118.514 42.0353 118.513C41.7004 118.512 41.429 118.578 41.2209 118.71C41.0159 118.84 40.8619 119.016 40.7589 119.239C40.6591 119.462 40.5994 119.713 40.58 119.992L39.688 119.715C39.7074 119.417 39.8153 119.125 40.0114 118.837C40.2107 118.549 40.4826 118.311 40.8273 118.123C41.172 117.935 41.5737 117.842 42.0326 117.843C42.293 117.844 42.5548 117.882 42.8181 117.957C43.0814 118.032 43.3229 118.152 43.5425 118.317C43.7653 118.479 43.9429 118.692 44.0754 118.956C44.2111 119.217 44.2784 119.533 44.2773 119.905C44.2757 120.435 44.1302 120.909 43.8406 121.327C43.5511 121.741 43.1468 122.157 42.6279 122.574L40.8053 124.043L40.215 123.93L44.3956 123.942L44.3935 124.658L39.6503 124.644ZM48.0762 124.781C47.264 124.778 46.6479 124.479 46.228 123.882C45.8113 123.286 45.6044 122.475 45.6074 121.448C45.6089 120.946 45.6614 120.478 45.765 120.044C45.8686 119.608 46.0247 119.227 46.2333 118.902C46.4451 118.574 46.7094 118.319 47.0261 118.137C47.3429 117.952 47.7152 117.86 48.143 117.861C48.5833 117.862 48.9643 117.955 49.2862 118.139C49.6112 118.32 49.8663 118.547 50.0515 118.82C50.2367 119.093 50.3444 119.371 50.3746 119.653L49.5229 119.869C49.5055 119.469 49.3762 119.147 49.1351 118.901C48.8972 118.655 48.5704 118.532 48.155 118.531C47.8419 118.53 47.5813 118.597 47.3732 118.733C47.1651 118.869 46.9971 119.048 46.8694 119.271C46.7447 119.494 46.6494 119.739 46.5835 120.005C46.5208 120.268 46.4781 120.53 46.4557 120.79C46.4363 121.051 46.4263 121.285 46.4257 121.493L46.3515 121.418C46.4826 121.115 46.6989 120.845 47.0003 120.611C47.3048 120.376 47.7004 120.259 48.1871 120.261C48.5778 120.262 48.9371 120.351 49.2652 120.529C49.5964 120.704 49.8608 120.96 50.0582 121.299C50.2556 121.634 50.3536 122.044 50.3522 122.527C50.3508 122.986 50.2551 123.386 50.065 123.726C49.8749 124.063 49.6091 124.325 49.2675 124.51C48.926 124.692 48.5289 124.782 48.0762 124.781ZM48.0782 124.111C48.5339 124.112 48.8862 123.971 49.1351 123.686C49.387 123.399 49.5137 123.007 49.5152 122.511C49.5167 122.012 49.3938 121.624 49.1466 121.347C48.8994 121.07 48.5557 120.932 48.1154 120.93C47.6628 120.929 47.2966 121.072 47.0167 121.359C46.7399 121.644 46.6008 122.034 46.5994 122.53C46.598 123.014 46.7301 123.399 46.9959 123.685C47.2648 123.967 47.6256 124.11 48.0782 124.111Z" fill="#A7B2C0"/>
<path d="M68.5982 124.729L68.5998 124.18L70.9587 122.192C71.2788 121.92 71.54 121.673 71.7422 121.451C71.9474 121.228 72.0984 121.002 72.1952 120.773C72.292 120.544 72.3408 120.288 72.3416 120.006C72.3425 119.699 72.289 119.442 72.1811 119.234C72.0764 119.023 71.9234 118.864 71.7222 118.758C71.521 118.652 71.2746 118.599 70.9832 118.598C70.6484 118.597 70.3769 118.663 70.1688 118.795C69.9638 118.925 69.8099 119.101 69.7069 119.324C69.607 119.547 69.5474 119.798 69.528 120.077L68.6359 119.8C68.6554 119.502 68.7632 119.21 68.9594 118.922C69.1586 118.634 69.4306 118.396 69.7753 118.208C70.12 118.02 70.5217 117.927 70.9805 117.928C71.241 117.929 71.5028 117.967 71.7661 118.042C72.0294 118.117 72.2709 118.237 72.4905 118.402C72.7132 118.564 72.8909 118.777 73.0234 119.041C73.1591 119.302 73.2263 119.618 73.2252 119.99C73.2237 120.52 73.0781 120.994 72.7886 121.412C72.4991 121.826 72.0948 122.242 71.5759 122.659L69.7533 124.128L69.163 124.015L73.3436 124.027L73.3415 124.743L68.5982 124.729ZM75.0993 124.748C75.3476 123.596 75.7072 122.538 76.1782 121.575C76.6492 120.609 77.2316 119.676 77.9256 118.776L74.2054 118.765L74.2075 118.049L78.7555 118.062L78.7536 118.69C78.436 119.164 78.1355 119.639 77.8519 120.115C77.5715 120.592 77.3143 121.078 77.0804 121.573C76.8495 122.065 76.6496 122.575 76.4806 123.101C76.3117 123.628 76.1799 124.178 76.0852 124.751L75.0993 124.748Z" fill="#A7B2C0"/>
<path d="M96.8998 124.812L96.9014 124.263L99.2603 122.275C99.5804 122.003 99.8416 121.756 100.044 121.534C100.249 121.311 100.4 121.085 100.497 120.856C100.594 120.627 100.642 120.371 100.643 120.089C100.644 119.782 100.591 119.525 100.483 119.317C100.378 119.106 100.225 118.947 100.024 118.841C99.8225 118.735 99.5762 118.682 99.2848 118.681C98.95 118.68 98.6785 118.746 98.4704 118.878C98.2654 119.008 98.1115 119.184 98.0085 119.407C97.9086 119.63 97.849 119.881 97.8296 120.16L96.9375 119.883C96.957 119.585 97.0648 119.293 97.261 119.005C97.4602 118.717 97.7322 118.479 98.0769 118.291C98.4215 118.103 98.8233 118.01 99.2821 118.011C99.5425 118.012 99.8044 118.05 100.068 118.125C100.331 118.2 100.572 118.32 100.792 118.485C101.015 118.647 101.192 118.86 101.325 119.124C101.461 119.385 101.528 119.701 101.527 120.073C101.525 120.603 101.38 121.077 101.09 121.495C100.801 121.909 100.396 122.325 99.8774 122.742L98.0549 124.211L97.4646 124.098L101.645 124.11L101.643 124.826L96.8998 124.812ZM105.075 124.948C104.616 124.946 104.208 124.862 103.852 124.693C103.499 124.522 103.223 124.284 103.022 123.979C102.825 123.675 102.726 123.324 102.728 122.927C102.729 122.503 102.857 122.123 103.112 121.789C103.367 121.452 103.74 121.239 104.23 121.151C103.973 121.088 103.749 120.99 103.557 120.856C103.365 120.722 103.217 120.559 103.112 120.366C103.01 120.17 102.959 119.953 102.96 119.715C102.961 119.389 103.052 119.099 103.232 118.846C103.416 118.589 103.668 118.388 103.988 118.243C104.31 118.099 104.681 118.027 105.1 118.028C105.521 118.029 105.89 118.103 106.206 118.25C106.525 118.397 106.774 118.599 106.953 118.857C107.132 119.111 107.221 119.402 107.22 119.727C107.219 119.966 107.166 120.183 107.06 120.378C106.957 120.57 106.811 120.732 106.621 120.865C106.432 120.997 106.208 121.094 105.951 121.156C106.44 121.247 106.812 121.462 107.065 121.801C107.318 122.136 107.444 122.516 107.443 122.941C107.442 123.338 107.34 123.688 107.138 123.991C106.935 124.294 106.655 124.531 106.298 124.7C105.945 124.867 105.537 124.949 105.075 124.948ZM105.081 124.213C105.543 124.214 105.908 124.096 106.175 123.858C106.443 123.62 106.577 123.294 106.578 122.878C106.579 122.472 106.447 122.148 106.181 121.905C105.915 121.659 105.551 121.536 105.089 121.534C104.631 121.533 104.264 121.655 103.991 121.899C103.72 122.14 103.585 122.463 103.583 122.869C103.582 123.288 103.716 123.617 103.985 123.856C104.257 124.093 104.623 124.212 105.081 124.213ZM105.091 120.846C105.491 120.847 105.806 120.757 106.036 120.575C106.266 120.392 106.382 120.139 106.383 119.813C106.384 119.475 106.27 119.207 106.041 119.007C105.812 118.805 105.498 118.704 105.098 118.702C104.698 118.701 104.381 118.801 104.148 119.002C103.915 119.2 103.798 119.467 103.797 119.805C103.796 120.131 103.912 120.385 104.144 120.569C104.375 120.753 104.691 120.845 105.091 120.846Z" fill="#A7B2C0"/>
<path d="M125.322 124.896L125.324 124.347L127.683 122.359C128.003 122.087 128.264 121.84 128.466 121.617C128.672 121.394 128.823 121.168 128.919 120.939C129.016 120.71 129.065 120.455 129.066 120.172C129.067 119.866 129.013 119.608 128.905 119.4C128.8 119.189 128.647 119.03 128.446 118.924C128.245 118.818 127.999 118.765 127.707 118.764C127.372 118.763 127.101 118.829 126.893 118.962C126.688 119.091 126.534 119.268 126.431 119.49C126.331 119.713 126.271 119.964 126.252 120.243L125.36 119.966C125.379 119.669 125.487 119.376 125.683 119.088C125.883 118.801 126.155 118.563 126.499 118.375C126.844 118.186 127.246 118.093 127.705 118.094C127.965 118.095 128.227 118.133 128.49 118.208C128.753 118.284 128.995 118.404 129.215 118.569C129.437 118.73 129.615 118.943 129.747 119.207C129.883 119.468 129.95 119.784 129.949 120.156C129.948 120.687 129.802 121.161 129.513 121.578C129.223 121.993 128.819 122.409 128.3 122.826L126.477 124.294L125.887 124.181L130.068 124.193L130.066 124.909L125.322 124.896ZM133.637 125.032C133.181 125.03 132.791 124.939 132.466 124.758C132.144 124.575 131.892 124.346 131.71 124.073C131.531 123.799 131.426 123.523 131.396 123.244L132.247 123.023C132.265 123.429 132.386 123.754 132.612 123.996C132.838 124.239 133.181 124.361 133.643 124.362C133.947 124.363 134.198 124.295 134.397 124.159C134.596 124.024 134.753 123.844 134.869 123.621C134.987 123.399 135.074 123.155 135.131 122.892C135.188 122.626 135.226 122.362 135.245 122.102C135.264 121.842 135.276 121.608 135.28 121.4L135.354 121.53C135.223 121.831 135.005 122.1 134.7 122.337C134.399 122.572 134.008 122.689 133.527 122.687C133.134 122.686 132.771 122.595 132.44 122.415C132.112 122.231 131.848 121.968 131.647 121.626C131.45 121.285 131.352 120.874 131.353 120.393C131.354 119.925 131.453 119.521 131.65 119.18C131.849 118.837 132.124 118.572 132.475 118.387C132.826 118.202 133.229 118.111 133.685 118.112C134.141 118.113 134.523 118.204 134.833 118.385C135.142 118.563 135.389 118.81 135.575 119.127C135.763 119.44 135.897 119.802 135.976 120.211C136.058 120.621 136.099 121.057 136.098 121.518C136.096 121.98 136.05 122.422 135.959 122.843C135.871 123.265 135.729 123.641 135.532 123.972C135.339 124.3 135.086 124.56 134.772 124.751C134.462 124.939 134.083 125.033 133.637 125.032ZM133.632 122.018C134.084 122.019 134.449 121.872 134.726 121.575C135.002 121.278 135.142 120.872 135.143 120.358C135.145 119.871 135.015 119.488 134.756 119.208C134.499 118.925 134.145 118.783 133.692 118.782C133.233 118.78 132.875 118.925 132.617 119.216C132.359 119.503 132.229 119.9 132.227 120.405C132.226 120.901 132.349 121.294 132.596 121.583C132.846 121.872 133.191 122.017 133.632 122.018Z" fill="#A7B2C0"/>
<path d="M156.204 125.098C155.789 125.097 155.405 125.015 155.052 124.853C154.702 124.69 154.414 124.455 154.189 124.148C153.964 123.837 153.831 123.459 153.792 123.012L154.64 122.749C154.672 123.249 154.823 123.654 155.092 123.964C155.361 124.272 155.727 124.427 156.192 124.428C156.611 124.429 156.959 124.309 157.235 124.068C157.515 123.824 157.655 123.473 157.657 123.014C157.657 122.834 157.619 122.643 157.542 122.442C157.468 122.237 157.334 122.063 157.139 121.92C156.944 121.776 156.667 121.704 156.307 121.703L155.387 121.701L155.389 120.994L156.235 120.996C156.629 120.997 156.93 120.894 157.138 120.687C157.35 120.477 157.456 120.24 157.456 119.977C157.457 119.667 157.35 119.401 157.133 119.181C156.917 118.96 156.61 118.849 156.214 118.848C155.724 118.846 155.364 118.985 155.133 119.263C154.906 119.541 154.775 119.929 154.739 120.425L153.894 120.157C153.913 119.838 154.021 119.526 154.217 119.223C154.414 118.92 154.684 118.67 155.029 118.472C155.373 118.275 155.778 118.177 156.243 118.178C156.625 118.179 156.97 118.255 157.28 118.404C157.592 118.554 157.84 118.759 158.022 119.02C158.204 119.278 158.295 119.576 158.294 119.914C158.293 120.137 158.246 120.343 158.152 120.532C158.059 120.718 157.919 120.877 157.732 121.01C157.546 121.143 157.31 121.241 157.025 121.305C157.496 121.391 157.866 121.592 158.134 121.909C158.406 122.223 158.542 122.586 158.54 122.998C158.539 123.37 158.472 123.689 158.338 123.955C158.207 124.222 158.029 124.44 157.806 124.609C157.582 124.776 157.332 124.9 157.056 124.979C156.78 125.059 156.496 125.099 156.204 125.098ZM162.338 125.116C161.563 125.113 160.963 124.809 160.537 124.204C160.11 123.595 159.899 122.743 159.902 121.649C159.905 120.554 160.122 119.706 160.551 119.102C160.981 118.496 161.583 118.194 162.358 118.196C163.137 118.198 163.737 118.504 164.16 119.113C164.586 119.719 164.798 120.569 164.794 121.663C164.791 122.757 164.575 123.608 164.145 124.214C163.719 124.817 163.116 125.118 162.338 125.116ZM162.34 124.446C162.855 124.448 163.245 124.212 163.509 123.738C163.774 123.264 163.908 122.572 163.911 121.66C163.913 120.749 163.784 120.056 163.522 119.581C163.26 119.106 162.871 118.867 162.357 118.866C161.842 118.864 161.452 119.1 161.187 119.574C160.922 120.047 160.789 120.74 160.786 121.651C160.783 122.563 160.913 123.256 161.175 123.731C161.437 124.206 161.826 124.445 162.34 124.446Z" fill="#A7B2C0"/>
<path d="M186.148 125.186C185.732 125.184 185.348 125.103 184.995 124.94C184.645 124.778 184.358 124.543 184.132 124.236C183.907 123.925 183.775 123.546 183.736 123.1L184.583 122.837C184.615 123.336 184.766 123.741 185.035 124.052C185.304 124.36 185.671 124.514 186.136 124.516C186.554 124.517 186.902 124.397 187.178 124.156C187.458 123.912 187.599 123.561 187.6 123.102C187.6 122.922 187.562 122.731 187.485 122.529C187.412 122.325 187.277 122.151 187.082 122.007C186.887 121.864 186.61 121.792 186.251 121.791L185.33 121.788L185.332 121.082L186.178 121.084C186.572 121.085 186.873 120.982 187.081 120.775C187.293 120.565 187.399 120.328 187.4 120.065C187.401 119.755 187.293 119.489 187.076 119.268C186.86 119.048 186.553 118.937 186.157 118.936C185.667 118.934 185.307 119.073 185.077 119.351C184.849 119.629 184.718 120.016 184.683 120.512L183.837 120.245C183.856 119.926 183.964 119.614 184.161 119.311C184.357 119.008 184.627 118.757 184.972 118.56C185.317 118.363 185.721 118.265 186.186 118.266C186.568 118.267 186.913 118.343 187.223 118.492C187.536 118.642 187.783 118.847 187.965 119.108C188.147 119.366 188.238 119.664 188.237 120.002C188.236 120.225 188.189 120.431 188.096 120.62C188.002 120.806 187.862 120.965 187.676 121.098C187.489 121.231 187.253 121.329 186.968 121.393C187.439 121.478 187.809 121.679 188.078 121.996C188.349 122.31 188.485 122.673 188.484 123.086C188.482 123.458 188.415 123.777 188.281 124.043C188.15 124.309 187.972 124.527 187.749 124.697C187.525 124.864 187.275 124.987 186.999 125.067C186.723 125.147 186.439 125.186 186.148 125.186ZM190.863 125.088L190.879 119.754C190.633 119.964 190.403 120.142 190.189 120.287C189.975 120.429 189.736 120.549 189.472 120.647L189.474 119.857C189.611 119.792 189.755 119.712 189.907 119.616C190.06 119.517 190.232 119.374 190.425 119.185C190.621 118.994 190.846 118.729 191.102 118.392L191.701 118.394L191.682 125.09L190.863 125.088Z" fill="#A7B2C0"/>
<g clip-path="url(#clip5_39_2432)">
<path d="M216.542 125.163L216.558 119.829C216.312 120.039 216.082 120.217 215.868 120.362C215.654 120.504 215.415 120.624 215.151 120.723L215.153 119.932C215.29 119.867 215.434 119.787 215.586 119.691C215.738 119.593 215.911 119.449 216.104 119.261C216.3 119.069 216.525 118.804 216.78 118.467L217.38 118.469L217.361 125.165L216.542 125.163Z" fill="#0D080B"/>
</g>
<g clip-path="url(#clip6_39_2432)">
<path d="M42.5798 153.224L42.5815 152.676L44.9403 150.688C45.2605 150.416 45.5216 150.169 45.7238 149.946C45.929 149.723 46.0801 149.497 46.1768 149.268C46.2736 149.039 46.3224 148.784 46.3233 148.501C46.3242 148.195 46.2707 147.937 46.1628 147.729C46.058 147.518 45.905 147.359 45.7038 147.253C45.5026 147.147 45.2563 147.094 44.9648 147.093C44.63 147.092 44.3586 147.158 44.1505 147.291C43.9455 147.42 43.7915 147.597 43.6885 147.819C43.5887 148.042 43.529 148.293 43.5096 148.572L42.6176 148.295C42.637 147.998 42.7448 147.705 42.941 147.417C43.1403 147.13 43.4122 146.892 43.7569 146.704C44.1016 146.515 44.5033 146.422 44.9622 146.423C45.2226 146.424 45.4844 146.462 45.7477 146.537C46.011 146.613 46.2525 146.733 46.4721 146.898C46.6949 147.059 46.8725 147.272 47.005 147.536C47.1407 147.797 47.2079 148.113 47.2069 148.485C47.2053 149.016 47.0598 149.489 46.7702 149.907C46.4807 150.322 46.0764 150.738 45.5575 151.155L43.7349 152.623L43.1446 152.51L47.3252 152.522L47.3231 153.238L42.5798 153.224Z" fill="#0D080B"/>
</g>
<g clip-path="url(#clip7_39_2432)">
<path d="M73.5643 153.427C73.1489 153.426 72.7647 153.344 72.4118 153.182C72.0619 153.02 71.7743 152.785 71.5489 152.477C71.3235 152.166 71.1913 151.788 71.1523 151.341L71.9994 151.079C72.032 151.578 72.1828 151.983 72.4516 152.294C72.7204 152.601 73.0873 152.756 73.5523 152.757C73.9709 152.759 74.3184 152.639 74.5951 152.398C74.8748 152.154 75.0153 151.802 75.0167 151.343C75.0172 151.163 74.979 150.973 74.9021 150.771C74.8283 150.566 74.6939 150.392 74.499 150.249C74.3042 150.106 74.0269 150.034 73.6673 150.033L72.7465 150.03L72.7486 149.323L73.5949 149.326C73.9887 149.327 74.2897 149.224 74.498 149.017C74.7094 148.806 74.8155 148.57 74.8163 148.306C74.8172 147.996 74.7095 147.731 74.4931 147.51C74.2768 147.289 73.9702 147.178 73.5733 147.177C73.0835 147.176 72.7235 147.314 72.4933 147.592C72.2661 147.871 72.1348 148.258 72.0992 148.754L71.2536 148.486C71.2732 148.167 71.3811 147.856 71.5773 147.553C71.7735 147.249 72.0439 146.999 72.3886 146.802C72.7333 146.604 73.1382 146.506 73.6032 146.507C73.9845 146.509 74.33 146.584 74.6396 146.734C74.9522 146.883 75.1997 147.089 75.3818 147.35C75.564 147.608 75.6545 147.905 75.6536 148.243C75.6529 148.467 75.6058 148.673 75.5122 148.861C75.4187 149.047 75.2787 149.206 75.0923 149.339C74.9059 149.472 74.67 149.571 74.3846 149.635C74.8556 149.72 75.2255 149.921 75.4942 150.238C75.7661 150.552 75.9015 150.915 75.9003 151.327C75.8992 151.699 75.8316 152.018 75.6975 152.285C75.5665 152.551 75.3892 152.769 75.1655 152.939C74.9418 153.106 74.6918 153.229 74.4157 153.309C74.1395 153.388 73.8557 153.428 73.5643 153.427Z" fill="#0D080B"/>
</g>
<g clip-path="url(#clip8_39_2432)">
<path d="M103.029 153.402L103.035 151.188L103.045 151.188L103.056 147.226L103.26 147.673L100.282 151.19L100.004 150.947L104.636 150.961L104.634 151.677L99.6299 151.662L99.6322 150.862L103.174 146.706L103.867 146.708L103.847 153.404L103.029 153.402Z" fill="#0D080B"/>
</g>
<g clip-path="url(#clip9_39_2432)">
<path d="M130.73 153.595C130.343 153.594 129.972 153.513 129.619 153.354C129.267 153.192 128.971 152.957 128.733 152.649C128.499 152.339 128.362 151.96 128.323 151.514L129.17 151.251C129.203 151.722 129.344 152.12 129.594 152.443C129.848 152.763 130.218 152.924 130.704 152.925C131.005 152.926 131.269 152.855 131.495 152.713C131.725 152.568 131.906 152.369 132.037 152.115C132.168 151.861 132.234 151.57 132.234 151.241C132.236 150.742 132.093 150.359 131.805 150.091C131.521 149.824 131.166 149.69 130.742 149.688C130.367 149.687 130.072 149.781 129.857 149.969C129.646 150.155 129.49 150.364 129.39 150.596L128.581 150.51L128.862 146.781L132.694 146.792L132.692 147.508L129.553 147.499L129.369 150.029L129.141 150.009C129.309 149.725 129.542 149.485 129.841 149.29C130.139 149.096 130.502 148.999 130.93 149.001C131.339 149.002 131.706 149.096 132.031 149.283C132.356 149.47 132.612 149.73 132.801 150.062C132.989 150.394 133.082 150.779 133.081 151.216C133.079 151.7 132.97 152.121 132.752 152.48C132.534 152.836 132.246 153.111 131.889 153.305C131.532 153.499 131.146 153.596 130.73 153.595Z" fill="#0D080B"/>
</g>
<g clip-path="url(#clip10_39_2432)">
<path d="M159.371 153.679C158.559 153.676 157.943 153.377 157.523 152.78C157.106 152.184 156.899 151.373 156.902 150.346C156.904 149.844 156.956 149.376 157.06 148.943C157.164 148.506 157.32 148.125 157.528 147.8C157.74 147.472 158.004 147.217 158.321 147.035C158.638 146.85 159.01 146.758 159.438 146.759C159.878 146.76 160.259 146.853 160.581 147.037C160.906 147.218 161.161 147.445 161.346 147.718C161.532 147.991 161.639 148.269 161.67 148.551L160.818 148.768C160.8 148.368 160.671 148.045 160.43 147.799C160.192 147.553 159.865 147.43 159.45 147.429C159.137 147.428 158.876 147.495 158.668 147.631C158.46 147.767 158.292 147.946 158.164 148.169C158.04 148.392 157.944 148.637 157.879 148.903C157.816 149.166 157.773 149.428 157.751 149.689C157.731 149.949 157.721 150.183 157.721 150.391L157.647 150.316C157.778 150.013 157.994 149.744 158.295 149.509C158.6 149.274 158.995 149.157 159.482 149.159C159.873 149.16 160.232 149.249 160.56 149.427C160.891 149.602 161.156 149.858 161.353 150.197C161.551 150.532 161.649 150.942 161.647 151.425C161.646 151.884 161.55 152.284 161.36 152.624C161.17 152.962 160.904 153.223 160.563 153.408C160.221 153.59 159.824 153.68 159.371 153.679ZM159.373 153.009C159.829 153.01 160.181 152.869 160.43 152.584C160.682 152.297 160.809 151.905 160.81 151.409C160.812 150.91 160.689 150.522 160.442 150.245C160.194 149.969 159.851 149.83 159.41 149.828C158.958 149.827 158.592 149.97 158.312 150.258C158.035 150.542 157.896 150.932 157.894 151.428C157.893 151.912 158.025 152.297 158.291 152.583C158.56 152.866 158.921 153.008 159.373 153.009Z" fill="#0D080B"/>
</g>
<g clip-path="url(#clip11_39_2432)">
<path d="M186.469 153.647C186.717 152.494 187.077 151.436 187.548 150.474C188.019 149.508 188.601 148.575 189.295 147.675L185.575 147.664L185.577 146.947L190.125 146.961L190.123 147.589C189.805 148.062 189.505 148.537 189.221 149.014C188.941 149.49 188.684 149.976 188.45 150.472C188.219 150.964 188.019 151.473 187.85 152C187.681 152.526 187.549 153.076 187.455 153.649L186.469 153.647Z" fill="#0D080B"/>
</g>
<g clip-path="url(#clip12_39_2432)">
<path d="M216.402 153.846C215.943 153.845 215.536 153.76 215.18 153.591C214.827 153.42 214.55 153.182 214.35 152.877C214.152 152.573 214.054 152.222 214.055 151.825C214.056 151.401 214.185 151.021 214.44 150.687C214.695 150.35 215.068 150.137 215.558 150.049C215.301 149.986 215.076 149.888 214.884 149.754C214.692 149.62 214.544 149.457 214.439 149.264C214.338 149.069 214.287 148.851 214.288 148.613C214.289 148.287 214.379 147.998 214.56 147.744C214.744 147.487 214.995 147.286 215.315 147.142C215.638 146.997 216.009 146.925 216.427 146.926C216.849 146.928 217.218 147.002 217.533 147.148C217.852 147.295 218.101 147.497 218.28 147.755C218.459 148.01 218.548 148.3 218.547 148.625C218.547 148.864 218.493 149.081 218.387 149.276C218.285 149.468 218.138 149.63 217.949 149.763C217.759 149.896 217.536 149.993 217.278 150.054C217.768 150.145 218.139 150.36 218.393 150.699C218.646 151.034 218.772 151.415 218.77 151.839C218.769 152.236 218.668 152.586 218.465 152.889C218.263 153.193 217.983 153.429 217.626 153.598C217.272 153.765 216.864 153.847 216.402 153.846ZM216.409 153.111C216.871 153.113 217.236 152.994 217.503 152.756C217.77 152.518 217.904 152.192 217.906 151.776C217.907 151.37 217.775 151.046 217.509 150.803C217.243 150.558 216.879 150.434 216.417 150.433C215.958 150.431 215.592 150.553 215.318 150.797C215.048 151.038 214.912 151.361 214.911 151.768C214.91 152.186 215.044 152.515 215.313 152.755C215.585 152.991 215.95 153.11 216.409 153.111ZM216.419 149.744C216.819 149.746 217.134 149.655 217.364 149.473C217.594 149.291 217.709 149.037 217.71 148.711C217.711 148.373 217.597 148.105 217.368 147.906C217.139 147.703 216.825 147.602 216.425 147.601C216.025 147.599 215.709 147.699 215.476 147.9C215.243 148.098 215.126 148.366 215.125 148.704C215.124 149.029 215.239 149.284 215.471 149.467C215.703 149.651 216.019 149.743 216.419 149.744Z" fill="#0D080B"/>
</g>
<g clip-path="url(#clip13_39_2432)">
<path d="M44.8023 181.914C44.3465 181.913 43.9562 181.822 43.6312 181.641C43.3093 181.457 43.0573 181.228 42.8752 180.955C42.6962 180.682 42.5916 180.405 42.5614 180.126L43.4131 179.906C43.4305 180.312 43.552 180.636 43.7776 180.879C44.0032 181.121 44.347 181.243 44.8089 181.244C45.1127 181.245 45.364 181.178 45.5628 181.042C45.7616 180.906 45.9187 180.727 46.0341 180.504C46.1525 180.281 46.2401 180.038 46.2966 179.775C46.3532 179.508 46.3912 179.245 46.4106 178.984C46.4299 178.724 46.4415 178.49 46.4452 178.282L46.5192 178.413C46.3881 178.713 46.1703 178.982 45.8658 179.22C45.5644 179.455 45.1734 179.571 44.6929 179.57C44.2992 179.569 43.9367 179.478 43.6055 179.297C43.2774 179.113 43.0131 178.85 42.8126 178.509C42.6152 178.167 42.5172 177.756 42.5186 177.276C42.52 176.807 42.6188 176.403 42.8151 176.063C43.0146 175.719 43.2897 175.455 43.6406 175.27C43.9914 175.085 44.3947 174.993 44.8505 174.995C45.3062 174.996 45.6888 175.087 45.9983 175.268C46.3078 175.445 46.5551 175.692 46.7402 176.009C46.9284 176.323 47.0622 176.684 47.1416 177.094C47.2241 177.503 47.2646 177.939 47.2633 178.401C47.2619 178.863 47.2157 179.305 47.1245 179.726C47.0365 180.147 46.8943 180.524 46.6981 180.855C46.5049 181.183 46.2514 181.442 45.9378 181.634C45.6272 181.822 45.2487 181.915 44.8023 181.914ZM44.7972 178.901C45.2498 178.902 45.6145 178.754 45.8913 178.457C46.1681 178.161 46.3072 177.755 46.3087 177.24C46.3102 176.754 46.1811 176.37 45.9215 176.09C45.665 175.808 45.3104 175.665 44.8578 175.664C44.399 175.663 44.0405 175.807 43.7823 176.098C43.5241 176.386 43.3943 176.782 43.3928 177.287C43.3914 177.784 43.5142 178.176 43.7614 178.465C44.0117 178.754 44.3569 178.899 44.7972 178.901Z" fill="#0D080B"/>
</g>
<g clip-path="url(#clip14_39_2432)">
<path d="M70.4582 181.878L70.4738 176.544C70.2283 176.754 69.9983 176.931 69.784 177.077C69.5697 177.218 69.3306 177.339 69.0668 177.437L69.0691 176.647C69.2057 176.582 69.3501 176.502 69.5023 176.406C69.6545 176.307 69.827 176.164 70.0198 175.975C70.2156 175.783 70.4412 175.519 70.6964 175.182L71.2963 175.184L71.2766 181.88L70.4582 181.878ZM75.2523 182.003C74.4772 182.001 73.8767 181.697 73.4506 181.091C73.0246 180.482 72.8132 179.631 72.8164 178.536C72.8196 177.442 73.036 176.593 73.4656 175.99C73.8952 175.383 74.4975 175.081 75.2726 175.084C76.0507 175.086 76.6513 175.392 77.0742 176C77.5003 176.606 77.7117 177.456 77.7085 178.551C77.7053 179.645 77.4889 180.495 77.0592 181.102C76.6327 181.705 76.0304 182.006 75.2523 182.003ZM75.2542 181.334C75.7689 181.335 76.1586 181.099 76.4235 180.626C76.6885 180.152 76.8222 179.46 76.8249 178.548C76.8276 177.637 76.6979 176.943 76.4357 176.468C76.1736 175.993 75.7852 175.755 75.2706 175.753C74.756 175.752 74.3662 175.988 74.1013 176.461C73.8364 176.935 73.7026 177.627 73.6999 178.539C73.6973 179.45 73.827 180.144 74.0891 180.619C74.3512 181.094 74.7396 181.332 75.2542 181.334Z" fill="#0D080B"/>
</g>
<g clip-path="url(#clip15_39_2432)">
<path d="M100.304 181.965L100.319 176.631C100.074 176.841 99.8438 177.019 99.6295 177.164C99.4152 177.306 99.1761 177.426 98.9123 177.525L98.9146 176.734C99.0512 176.669 99.1956 176.589 99.3478 176.494C99.5 176.395 99.6725 176.251 99.8652 176.063C100.061 175.871 100.287 175.607 100.542 175.269L101.142 175.271L101.122 181.968L100.304 181.965ZM103.875 181.976L103.891 176.642C103.645 176.852 103.415 177.029 103.201 177.175C102.987 177.317 102.747 177.437 102.484 177.535L102.486 176.745C102.623 176.68 102.767 176.6 102.919 176.504C103.071 176.405 103.244 176.262 103.437 176.073C103.633 175.881 103.858 175.617 104.113 175.28L104.713 175.282L104.694 181.978L103.875 181.976Z" fill="#0D080B"/>
</g>
<g clip-path="url(#clip16_39_2432)">
<path d="M127.773 182.046L127.788 176.712C127.543 176.922 127.313 177.1 127.099 177.245C126.884 177.387 126.645 177.507 126.381 177.605L126.384 176.815C126.52 176.75 126.665 176.67 126.817 176.574C126.969 176.475 127.142 176.332 127.334 176.143C127.53 175.952 127.756 175.687 128.011 175.35L128.611 175.352L128.591 182.048L127.773 182.046ZM130.01 182.052L130.011 181.504L132.37 179.515C132.69 179.244 132.951 178.996 133.154 178.774C133.359 178.551 133.51 178.325 133.607 178.096C133.703 177.867 133.752 177.611 133.753 177.329C133.754 177.022 133.7 176.765 133.593 176.557C133.488 176.346 133.335 176.187 133.134 176.081C132.932 175.975 132.686 175.922 132.395 175.921C132.06 175.92 131.788 175.986 131.58 176.118C131.375 176.248 131.221 176.424 131.118 176.647C131.018 176.87 130.959 177.121 130.939 177.4L130.047 177.123C130.067 176.825 130.175 176.533 130.371 176.245C130.57 175.957 130.842 175.719 131.187 175.531C131.531 175.343 131.933 175.25 132.392 175.251C132.652 175.252 132.914 175.29 133.177 175.365C133.441 175.44 133.682 175.56 133.902 175.725C134.125 175.887 134.302 176.1 134.435 176.364C134.57 176.625 134.638 176.941 134.637 177.313C134.635 177.843 134.49 178.317 134.2 178.735C133.91 179.15 133.506 179.565 132.987 179.982L131.165 181.451L130.574 181.338L134.755 181.35L134.753 182.066L130.01 182.052Z" fill="#0D080B"/>
</g>
<g clip-path="url(#clip17_39_2432)">
<path d="M156.339 182.129L156.355 176.796C156.11 177.006 155.88 177.183 155.665 177.328C155.451 177.47 155.212 177.591 154.948 177.689L154.95 176.898C155.087 176.834 155.231 176.754 155.384 176.658C155.536 176.559 155.708 176.415 155.901 176.227C156.097 176.035 156.322 175.771 156.578 175.434L157.178 175.435L157.158 182.132L156.339 182.129ZM160.98 182.255C160.565 182.253 160.181 182.172 159.828 182.009C159.478 181.847 159.19 181.612 158.965 181.305C158.739 180.994 158.607 180.615 158.568 180.169L159.415 179.906C159.448 180.406 159.599 180.811 159.867 181.121C160.136 181.429 160.503 181.584 160.968 181.585C161.387 181.586 161.734 181.466 162.011 181.225C162.291 180.981 162.431 180.63 162.433 180.171C162.433 179.991 162.395 179.8 162.318 179.599C162.244 179.394 162.11 179.22 161.915 179.077C161.72 178.933 161.443 178.861 161.083 178.86L160.162 178.858L160.164 178.151L161.011 178.153C161.404 178.154 161.706 178.051 161.914 177.844C162.125 177.634 162.231 177.397 162.232 177.134C162.233 176.824 162.125 176.558 161.909 176.338C161.693 176.117 161.386 176.006 160.989 176.005C160.499 176.003 160.139 176.142 159.909 176.42C159.682 176.698 159.551 177.086 159.515 177.581L158.669 177.314C158.689 176.995 158.797 176.683 158.993 176.38C159.189 176.077 159.46 175.827 159.804 175.629C160.149 175.432 160.554 175.334 161.019 175.335C161.4 175.336 161.746 175.412 162.055 175.561C162.368 175.711 162.615 175.916 162.798 176.177C162.98 176.435 163.07 176.733 163.069 177.071C163.069 177.294 163.022 177.5 162.928 177.689C162.835 177.875 162.695 178.034 162.508 178.167C162.322 178.3 162.086 178.398 161.8 178.462C162.271 178.548 162.641 178.749 162.91 179.066C163.182 179.379 163.317 179.743 163.316 180.155C163.315 180.527 163.247 180.846 163.113 181.112C162.982 181.379 162.805 181.597 162.581 181.766C162.358 181.933 162.108 182.056 161.831 182.136C161.555 182.216 161.272 182.256 160.98 182.255Z" fill="#0D080B"/>
</g>
<g clip-path="url(#clip18_39_2432)">
<path d="M184.869 182.213L184.885 176.879C184.639 177.089 184.409 177.267 184.195 177.412C183.98 177.554 183.741 177.674 183.478 177.773L183.48 176.982C183.616 176.917 183.761 176.837 183.913 176.742C184.065 176.643 184.238 176.499 184.431 176.311C184.626 176.119 184.852 175.855 185.107 175.517L185.707 175.519L185.687 182.216L184.869 182.213ZM190.445 182.229L190.451 180.016L190.46 180.016L190.472 176.054L190.675 176.501L187.698 180.017L187.42 179.775L192.051 179.788L192.049 180.504L187.046 180.49L187.048 179.69L190.59 175.533L191.283 175.535L191.263 182.232L190.445 182.229Z" fill="#0D080B"/>
</g>
<g clip-path="url(#clip19_39_2432)">
<path d="M213.422 182.297L213.437 176.963C213.192 177.173 212.962 177.351 212.747 177.496C212.533 177.638 212.294 177.758 212.03 177.856L212.033 177.066C212.169 177.001 212.314 176.921 212.466 176.825C212.618 176.727 212.79 176.583 212.983 176.394C213.179 176.203 213.405 175.938 213.66 175.601L214.26 175.603L214.24 182.299L213.422 182.297ZM218.188 182.422C217.8 182.421 217.43 182.341 217.077 182.182C216.724 182.02 216.429 181.785 216.191 181.477C215.956 181.167 215.819 180.788 215.78 180.341L216.628 180.079C216.66 180.55 216.802 180.947 217.052 181.271C217.305 181.591 217.675 181.751 218.162 181.753C218.463 181.754 218.726 181.683 218.953 181.541C219.183 181.396 219.363 181.197 219.494 180.943C219.625 180.689 219.691 180.398 219.692 180.069C219.694 179.57 219.551 179.187 219.263 178.919C218.979 178.652 218.624 178.517 218.199 178.516C217.824 178.515 217.529 178.609 217.315 178.797C217.104 178.983 216.948 179.192 216.848 179.424L216.039 179.338L216.32 175.609L220.152 175.62L220.15 176.336L217.011 176.327L216.826 178.856L216.599 178.837C216.767 178.552 217 178.313 217.298 178.118C217.597 177.924 217.96 177.827 218.387 177.829C218.797 177.83 219.164 177.924 219.489 178.111C219.814 178.298 220.07 178.557 220.258 178.89C220.446 179.222 220.54 179.607 220.539 180.044C220.537 180.527 220.427 180.949 220.209 181.308C219.991 181.664 219.704 181.939 219.347 182.133C218.99 182.327 218.603 182.424 218.188 182.422Z" fill="#0D080B"/>
</g>
<g clip-path="url(#clip20_39_2432)">
<path d="M41.8821 210.365L41.8978 205.032C41.6522 205.242 41.4223 205.419 41.208 205.564C40.9936 205.706 40.7546 205.826 40.4908 205.925L40.4931 205.134C40.6297 205.07 40.7741 204.989 40.9263 204.894C41.0785 204.795 41.2509 204.651 41.4437 204.463C41.6396 204.271 41.8651 204.007 42.1203 203.67L42.7202 203.671L42.7006 210.368L41.8821 210.365ZM46.7041 210.491C45.8919 210.489 45.2758 210.189 44.8559 209.593C44.4392 208.996 44.2323 208.185 44.2353 207.159C44.2368 206.657 44.2893 206.189 44.3929 205.755C44.4965 205.318 44.6526 204.937 44.8613 204.612C45.073 204.284 45.3373 204.029 45.6541 203.847C45.9708 203.662 46.3431 203.57 46.7709 203.572C47.2112 203.573 47.5922 203.666 47.9141 203.849C48.2391 204.03 48.4942 204.257 48.6794 204.531C48.8646 204.804 48.9723 205.082 49.0025 205.364L48.1508 205.58C48.1334 205.18 48.0041 204.857 47.7631 204.612C47.5251 204.366 47.1983 204.243 46.7829 204.241C46.4698 204.24 46.2092 204.308 46.0011 204.444C45.793 204.579 45.625 204.759 45.4973 204.982C45.3726 205.204 45.2773 205.449 45.2114 205.716C45.1487 205.979 45.106 206.241 45.0836 206.501C45.0642 206.761 45.0542 206.995 45.0536 207.203L44.9794 207.129C45.1105 206.825 45.3268 206.556 45.6282 206.321C45.9327 206.087 46.3283 205.97 46.8151 205.971C47.2057 205.973 47.565 206.062 47.8931 206.24C48.2243 206.414 48.4887 206.671 48.6861 207.009C48.8835 207.345 48.9815 207.754 48.9801 208.238C48.9788 208.697 48.883 209.096 48.6929 209.437C48.5028 209.774 48.237 210.035 47.8954 210.22C47.5539 210.402 47.1568 210.492 46.7041 210.491ZM46.7061 209.822C47.1618 209.823 47.5141 209.681 47.763 209.397C48.0149 209.109 48.1416 208.717 48.1431 208.221C48.1446 207.722 48.0217 207.334 47.7745 207.058C47.5273 206.781 47.1836 206.642 46.7433 206.641C46.2907 206.639 45.9245 206.783 45.6446 207.07C45.3678 207.354 45.2287 207.745 45.2273 208.241C45.2259 208.724 45.3581 209.109 45.6238 209.395C45.8927 209.678 46.2535 209.82 46.7061 209.822Z" fill="#0D080B"/>
</g>
<g clip-path="url(#clip21_39_2432)">
<rect x="61.5221" y="195.518" width="23.8095" height="23.8095" rx="11.9048" transform="rotate(0.168029 61.5221 195.518)" fill="#A30162"/>
<path d="M70.7557 210.45L70.7713 205.116C70.5258 205.326 70.2959 205.504 70.0815 205.649C69.8672 205.791 69.6281 205.911 69.3643 206.01L69.3666 205.219C69.5032 205.154 69.6476 205.074 69.7998 204.978C69.952 204.88 70.1245 204.736 70.3173 204.547C70.5132 204.356 70.7387 204.091 70.9939 203.754L71.5938 203.756L71.5741 210.452L70.7557 210.45ZM73.8016 210.459C74.0499 209.306 74.4096 208.249 74.8805 207.286C75.3515 206.32 75.934 205.387 76.6279 204.487L72.9077 204.476L72.9098 203.76L77.4578 203.773L77.4559 204.401C77.1383 204.874 76.8378 205.349 76.5543 205.826C76.2738 206.303 76.0166 206.789 75.7827 207.284C75.5518 207.776 75.3519 208.286 75.183 208.812C75.014 209.339 74.8822 209.889 74.7875 210.462L73.8016 210.459Z" fill="white"/>
</g>
<g clip-path="url(#clip22_39_2432)">
<path d="M99.0526 210.533L99.0683 205.199C98.8227 205.409 98.5928 205.587 98.3785 205.732C98.1641 205.874 97.9251 205.994 97.6613 206.093L97.6636 205.302C97.8002 205.237 97.9446 205.157 98.0968 205.061C98.249 204.963 98.4215 204.819 98.6142 204.63C98.8101 204.439 99.0356 204.174 99.2908 203.837L99.8907 203.839L99.8711 210.535L99.0526 210.533ZM103.782 210.659C103.323 210.657 102.915 210.572 102.559 210.404C102.206 210.232 101.93 209.994 101.729 209.69C101.532 209.385 101.433 209.035 101.435 208.638C101.436 208.213 101.564 207.834 101.819 207.5C102.074 207.163 102.447 206.95 102.937 206.861C102.68 206.799 102.456 206.7 102.264 206.566C102.072 206.433 101.924 206.269 101.819 206.077C101.717 205.881 101.666 205.664 101.667 205.425C101.668 205.1 101.759 204.81 101.939 204.557C102.123 204.3 102.375 204.099 102.695 203.954C103.017 203.809 103.388 203.738 103.807 203.739C104.228 203.74 104.597 203.814 104.913 203.961C105.232 204.107 105.481 204.31 105.66 204.567C105.839 204.822 105.928 205.112 105.927 205.438C105.926 205.677 105.873 205.893 105.767 206.088C105.664 206.28 105.518 206.443 105.328 206.575C105.139 206.708 104.915 206.805 104.658 206.866C105.147 206.958 105.519 207.173 105.772 207.511C106.025 207.847 106.151 208.227 106.15 208.652C106.149 209.049 106.047 209.399 105.845 209.702C105.642 210.005 105.362 210.242 105.005 210.411C104.651 210.577 104.244 210.66 103.782 210.659ZM103.788 209.924C104.25 209.925 104.615 209.807 104.882 209.569C105.15 209.331 105.284 209.004 105.285 208.589C105.286 208.183 105.154 207.858 104.888 207.616C104.622 207.37 104.258 207.247 103.796 207.245C103.337 207.244 102.971 207.365 102.698 207.609C102.427 207.85 102.292 208.174 102.29 208.58C102.289 208.999 102.423 209.328 102.692 209.567C102.964 209.804 103.33 209.922 103.788 209.924ZM103.798 206.557C104.198 206.558 104.513 206.468 104.743 206.285C104.973 206.103 105.089 205.849 105.089 205.524C105.09 205.186 104.977 204.917 104.748 204.718C104.519 204.516 104.205 204.414 103.805 204.413C103.405 204.412 103.088 204.512 102.855 204.713C102.622 204.91 102.505 205.178 102.504 205.516C102.503 205.842 102.618 206.096 102.85 206.28C103.082 206.463 103.398 206.556 103.798 206.557Z" fill="#0D080B"/>
</g>
<g clip-path="url(#clip23_39_2432)">
<path d="M127.554 210.617L127.57 205.283C127.324 205.493 127.094 205.67 126.88 205.816C126.666 205.957 126.427 206.078 126.163 206.176L126.165 205.386C126.302 205.321 126.446 205.241 126.598 205.145C126.751 205.046 126.923 204.903 127.116 204.714C127.312 204.522 127.537 204.258 127.792 203.921L128.392 203.923L128.373 210.619L127.554 210.617ZM132.265 210.742C131.809 210.741 131.419 210.65 131.094 210.469C130.772 210.285 130.52 210.056 130.338 209.783C130.159 209.51 130.054 209.234 130.024 208.954L130.875 208.734C130.893 209.14 131.014 209.464 131.24 209.707C131.466 209.949 131.809 210.071 132.271 210.072C132.575 210.073 132.826 210.006 133.025 209.87C133.224 209.734 133.381 209.555 133.496 209.332C133.615 209.109 133.702 208.866 133.759 208.603C133.816 208.336 133.854 208.073 133.873 207.812C133.892 207.552 133.904 207.318 133.908 207.11L133.982 207.241C133.85 207.541 133.633 207.81 133.328 208.048C133.027 208.283 132.636 208.399 132.155 208.398C131.761 208.397 131.399 208.306 131.068 208.125C130.74 207.941 130.475 207.678 130.275 207.337C130.078 206.995 129.98 206.584 129.981 206.104C129.982 205.636 130.081 205.231 130.277 204.891C130.477 204.547 130.752 204.283 131.103 204.098C131.454 203.913 131.857 203.821 132.313 203.823C132.769 203.824 133.151 203.915 133.461 204.096C133.77 204.273 134.017 204.52 134.202 204.837C134.391 205.151 134.524 205.512 134.604 205.922C134.686 206.331 134.727 206.767 134.726 207.229C134.724 207.691 134.678 208.133 134.587 208.554C134.499 208.975 134.357 209.352 134.16 209.683C133.967 210.011 133.714 210.27 133.4 210.462C133.09 210.65 132.711 210.743 132.265 210.742ZM132.259 207.729C132.712 207.73 133.077 207.582 133.354 207.285C133.63 206.989 133.77 206.583 133.771 206.068C133.772 205.582 133.643 205.198 133.384 204.918C133.127 204.636 132.773 204.494 132.32 204.492C131.861 204.491 131.503 204.635 131.245 204.926C130.986 205.214 130.857 205.61 130.855 206.115C130.854 206.612 130.977 207.004 131.224 207.293C131.474 207.582 131.819 207.727 132.259 207.729Z" fill="#0D080B"/>
</g>
<g clip-path="url(#clip24_39_2432)">
<path d="M153.605 210.693L153.607 210.144L155.966 208.156C156.286 207.884 156.547 207.637 156.749 207.414C156.954 207.192 157.105 206.966 157.202 206.737C157.299 206.508 157.348 206.252 157.348 205.97C157.349 205.663 157.296 205.406 157.188 205.198C157.083 204.986 156.93 204.828 156.729 204.722C156.528 204.616 156.281 204.562 155.99 204.562C155.655 204.561 155.384 204.626 155.176 204.759C154.971 204.889 154.817 205.065 154.714 205.288C154.614 205.511 154.554 205.762 154.535 206.041L153.643 205.764C153.662 205.466 153.77 205.174 153.966 204.886C154.165 204.598 154.437 204.36 154.782 204.172C155.127 203.984 155.529 203.891 155.987 203.892C156.248 203.893 156.51 203.931 156.773 204.006C157.036 204.081 157.278 204.201 157.497 204.366C157.72 204.528 157.898 204.741 158.03 205.005C158.166 205.266 158.233 205.582 158.232 205.954C158.23 206.484 158.085 206.958 157.795 207.376C157.506 207.79 157.102 208.206 156.583 208.623L154.76 210.092L154.17 209.979L158.35 209.991L158.348 210.707L153.605 210.693ZM162.003 210.829C161.228 210.827 160.628 210.523 160.201 209.917C159.775 209.308 159.564 208.457 159.567 207.362C159.57 206.268 159.787 205.419 160.216 204.816C160.646 204.209 161.248 203.907 162.023 203.91C162.802 203.912 163.402 204.218 163.825 204.826C164.251 205.432 164.463 206.282 164.459 207.377C164.456 208.471 164.24 209.321 163.81 209.928C163.384 210.531 162.781 210.832 162.003 210.829ZM162.005 210.16C162.52 210.161 162.909 209.925 163.174 209.452C163.439 208.978 163.573 208.286 163.576 207.374C163.578 206.463 163.449 205.769 163.187 205.294C162.924 204.819 162.536 204.581 162.021 204.579C161.507 204.578 161.117 204.814 160.852 205.287C160.587 205.761 160.453 206.453 160.451 207.365C160.448 208.276 160.578 208.97 160.84 209.445C161.102 209.92 161.49 210.158 162.005 210.16Z" fill="#0D080B"/>
</g>
<g clip-path="url(#clip25_39_2432)">
<path d="M183.478 210.781L183.48 210.232L185.839 208.244C186.159 207.972 186.42 207.725 186.622 207.502C186.828 207.279 186.979 207.054 187.075 206.824C187.172 206.595 187.221 206.34 187.222 206.058C187.223 205.751 187.169 205.493 187.061 205.285C186.957 205.074 186.804 204.916 186.602 204.81C186.401 204.704 186.155 204.65 185.863 204.649C185.529 204.648 185.257 204.714 185.049 204.847C184.844 204.976 184.69 205.153 184.587 205.376C184.487 205.599 184.428 205.849 184.408 206.128L183.516 205.851C183.536 205.554 183.643 205.261 183.84 204.973C184.039 204.686 184.311 204.448 184.655 204.26C185 204.072 185.402 203.978 185.861 203.98C186.121 203.98 186.383 204.018 186.646 204.093C186.91 204.169 187.151 204.289 187.371 204.454C187.593 204.616 187.771 204.828 187.904 205.092C188.039 205.353 188.107 205.67 188.105 206.042C188.104 206.572 187.958 207.046 187.669 207.463C187.379 207.878 186.975 208.294 186.456 208.711L184.633 210.179L184.043 210.066L188.224 210.078L188.222 210.795L183.478 210.781ZM190.598 210.802L190.614 205.468C190.368 205.678 190.138 205.855 189.924 206C189.709 206.142 189.47 206.263 189.207 206.361L189.209 205.571C189.346 205.506 189.49 205.426 189.642 205.33C189.794 205.231 189.967 205.088 190.16 204.899C190.355 204.707 190.581 204.443 190.836 204.106L191.436 204.108L191.416 210.804L190.598 210.802Z" fill="#0D080B"/>
</g>
<g clip-path="url(#clip26_39_2432)">
<path d="M210.915 210.861L210.917 210.312L213.276 208.324C213.596 208.052 213.857 207.805 214.059 207.583C214.264 207.36 214.415 207.134 214.512 206.905C214.609 206.676 214.658 206.42 214.658 206.138C214.659 205.831 214.606 205.574 214.498 205.366C214.393 205.154 214.24 204.996 214.039 204.89C213.838 204.784 213.591 204.73 213.3 204.73C212.965 204.729 212.694 204.795 212.486 204.927C212.281 205.057 212.127 205.233 212.024 205.456C211.924 205.679 211.864 205.93 211.845 206.209L210.953 205.932C210.972 205.634 211.08 205.342 211.276 205.054C211.475 204.766 211.747 204.528 212.092 204.34C212.437 204.152 212.839 204.059 213.297 204.06C213.558 204.061 213.82 204.099 214.083 204.174C214.346 204.249 214.588 204.369 214.807 204.534C215.03 204.696 215.208 204.909 215.34 205.173C215.476 205.434 215.543 205.75 215.542 206.122C215.541 206.652 215.395 207.126 215.105 207.544C214.816 207.958 214.412 208.374 213.893 208.791L212.07 210.26L211.48 210.147L215.66 210.159L215.658 210.875L210.915 210.861ZM216.765 210.878L216.767 210.329L219.126 208.341C219.446 208.07 219.707 207.822 219.909 207.6C220.114 207.377 220.265 207.151 220.362 206.922C220.459 206.693 220.508 206.437 220.509 206.155C220.509 205.848 220.456 205.591 220.348 205.383C220.243 205.172 220.09 205.013 219.889 204.907C219.688 204.801 219.442 204.748 219.15 204.747C218.815 204.746 218.544 204.812 218.336 204.944C218.131 205.074 217.977 205.25 217.874 205.473C217.774 205.696 217.714 205.947 217.695 206.226L216.803 205.949C216.822 205.651 216.93 205.359 217.126 205.071C217.326 204.783 217.597 204.545 217.942 204.357C218.287 204.169 218.689 204.076 219.147 204.077C219.408 204.078 219.67 204.116 219.933 204.191C220.196 204.266 220.438 204.386 220.657 204.551C220.88 204.713 221.058 204.926 221.19 205.19C221.326 205.451 221.393 205.767 221.392 206.139C221.391 206.669 221.245 207.143 220.955 207.561C220.666 207.975 220.262 208.391 219.743 208.808L217.92 210.277L217.33 210.164L221.51 210.176L221.508 210.892L216.765 210.878Z" fill="#0D080B"/>
</g>
<g clip-path="url(#clip27_39_2432)">
<path d="M39.4267 238.93L39.4283 238.381L41.7872 236.393C42.1073 236.121 42.3685 235.874 42.5706 235.651C42.7759 235.429 42.9269 235.203 43.0237 234.974C43.1205 234.744 43.1693 234.489 43.1701 234.207C43.171 233.9 43.1175 233.642 43.0096 233.434C42.9048 233.223 42.7518 233.065 42.5506 232.959C42.3494 232.853 42.1031 232.799 41.8117 232.798C41.4769 232.797 41.2054 232.863 40.9973 232.996C40.7923 233.126 40.6383 233.302 40.5354 233.525C40.4355 233.748 40.3759 233.999 40.3565 234.278L39.4644 234.001C39.4839 233.703 39.5917 233.41 39.7879 233.123C39.9871 232.835 40.2591 232.597 40.6038 232.409C40.9484 232.221 41.3502 232.127 41.809 232.129C42.0694 232.129 42.3313 232.167 42.5946 232.243C42.8579 232.318 43.0993 232.438 43.319 232.603C43.5417 232.765 43.7193 232.978 43.8519 233.241C43.9875 233.502 44.0548 233.819 44.0537 234.191C44.0522 234.721 43.9066 235.195 43.6171 235.612C43.3275 236.027 42.9233 236.443 42.4043 236.86L40.5817 238.329L39.9915 238.215L44.1721 238.228L44.17 238.944L39.4267 238.93ZM47.6248 239.065C47.2094 239.064 46.8252 238.982 46.4723 238.82C46.1224 238.658 45.8348 238.423 45.6094 238.116C45.384 237.805 45.2518 237.426 45.2128 236.98L46.0599 236.717C46.0925 237.216 46.2433 237.621 46.5121 237.932C46.7809 238.24 47.1478 238.394 47.6128 238.396C48.0314 238.397 48.3789 238.277 48.6556 238.036C48.9353 237.792 49.0758 237.441 49.0772 236.982C49.0777 236.802 49.0395 236.611 48.9626 236.409C48.8888 236.205 48.7544 236.031 48.5595 235.887C48.3647 235.744 48.0874 235.672 47.7278 235.671L46.807 235.668L46.8091 234.961L47.6554 234.964C48.0492 234.965 48.3502 234.862 48.5585 234.655C48.7699 234.445 48.876 234.208 48.8768 233.944C48.8777 233.634 48.77 233.369 48.5536 233.148C48.3373 232.928 48.0307 232.817 47.6338 232.815C47.144 232.814 46.784 232.952 46.5537 233.231C46.3266 233.509 46.1953 233.896 46.1597 234.392L45.3141 234.125C45.3337 233.805 45.4416 233.494 45.6378 233.191C45.834 232.888 46.1044 232.637 46.4491 232.44C46.7938 232.243 47.1987 232.145 47.6637 232.146C48.045 232.147 48.3905 232.222 48.7001 232.372C49.0127 232.522 49.2602 232.727 49.4423 232.988C49.6245 233.246 49.715 233.544 49.7141 233.882C49.7134 234.105 49.6663 234.311 49.5727 234.5C49.4792 234.686 49.3392 234.845 49.1528 234.978C48.9664 235.11 48.7305 235.209 48.4451 235.273C48.9161 235.358 49.286 235.559 49.5547 235.876C49.8266 236.19 49.962 236.553 49.9608 236.966C49.9597 237.338 49.8921 237.657 49.758 237.923C49.627 238.189 49.4497 238.407 49.226 238.577C49.0022 238.744 48.7523 238.867 48.4762 238.947C48.2 239.027 47.9162 239.066 47.6248 239.065Z" fill="#0D080B"/>
</g>
<g clip-path="url(#clip28_39_2432)">
<path d="M68.1003 239.014L68.1019 238.465L70.4608 236.477C70.7809 236.205 71.0421 235.958 71.2442 235.735C71.4495 235.513 71.6005 235.287 71.6973 235.058C71.7941 234.829 71.8429 234.573 71.8437 234.291C71.8446 233.984 71.7911 233.726 71.6832 233.518C71.5784 233.307 71.4254 233.149 71.2242 233.043C71.023 232.937 70.7767 232.883 70.4853 232.882C70.1505 232.881 69.879 232.947 69.6709 233.08C69.4659 233.21 69.3119 233.386 69.209 233.609C69.1091 233.832 69.0495 234.083 69.0301 234.362L68.138 234.085C68.1575 233.787 68.2653 233.494 68.4615 233.207C68.6607 232.919 68.9327 232.681 69.2774 232.493C69.622 232.305 70.0238 232.211 70.4826 232.213C70.743 232.214 71.0049 232.252 71.2682 232.327C71.5315 232.402 71.7729 232.522 71.9926 232.687C72.2153 232.849 72.393 233.062 72.5255 233.326C72.6611 233.586 72.7284 233.903 72.7273 234.275C72.7258 234.805 72.5802 235.279 72.2907 235.697C72.0011 236.111 71.5969 236.527 71.0779 236.944L69.2553 238.413L68.6651 238.299L72.8457 238.312L72.8436 239.028L68.1003 239.014ZM76.9451 239.04L76.9516 236.826L76.9609 236.826L76.9725 232.864L77.1758 233.311L74.1986 236.828L73.9203 236.585L78.552 236.598L78.5499 237.315L73.5462 237.3L73.5486 236.5L77.0903 232.344L77.7832 232.346L77.7636 239.042L76.9451 239.04Z" fill="#0D080B"/>
</g>
<g clip-path="url(#clip29_39_2432)">
<path d="M96.56 239.097L96.5616 238.549L98.9205 236.561C99.2406 236.289 99.5018 236.041 99.7039 235.819C99.9092 235.596 100.06 235.37 100.157 235.141C100.254 234.912 100.303 234.656 100.303 234.374C100.304 234.067 100.251 233.81 100.143 233.602C100.038 233.391 99.8851 233.232 99.6839 233.126C99.4827 233.02 99.2364 232.967 98.945 232.966C98.6102 232.965 98.3387 233.031 98.1306 233.163C97.9256 233.293 97.7716 233.469 97.6687 233.692C97.5688 233.915 97.5092 234.166 97.4898 234.445L96.5977 234.168C96.6172 233.871 96.725 233.578 96.9212 233.29C97.1204 233.002 97.3924 232.764 97.7371 232.576C98.0817 232.388 98.4835 232.295 98.9423 232.296C99.2027 232.297 99.4646 232.335 99.7279 232.41C99.9912 232.485 100.233 232.605 100.452 232.77C100.675 232.932 100.853 233.145 100.985 233.409C101.121 233.67 101.188 233.986 101.187 234.358C101.185 234.888 101.04 235.362 100.75 235.78C100.461 236.195 100.057 236.61 99.5376 237.027L97.715 238.496L97.1248 238.383L101.305 238.395L101.303 239.111L96.56 239.097ZM104.781 239.233C104.394 239.232 104.024 239.152 103.671 238.993C103.318 238.83 103.022 238.595 102.785 238.288C102.55 237.977 102.413 237.598 102.374 237.152L103.221 236.889C103.254 237.361 103.395 237.758 103.645 238.081C103.899 238.401 104.269 238.562 104.755 238.563C105.056 238.564 105.32 238.494 105.547 238.352C105.776 238.207 105.957 238.007 106.088 237.753C106.219 237.5 106.285 237.208 106.286 236.88C106.287 236.381 106.144 235.997 105.857 235.73C105.572 235.462 105.218 235.328 104.793 235.327C104.418 235.326 104.123 235.419 103.908 235.608C103.697 235.793 103.541 236.002 103.442 236.234L102.633 236.148L102.913 232.419L106.745 232.431L106.743 233.147L103.604 233.138L103.42 235.667L103.192 235.648C103.36 235.363 103.594 235.123 103.892 234.929C104.19 234.734 104.553 234.638 104.981 234.639C105.39 234.64 105.757 234.734 106.082 234.921C106.407 235.108 106.664 235.368 106.852 235.7C107.04 236.032 107.133 236.417 107.132 236.854C107.131 237.338 107.021 237.759 106.803 238.118C106.585 238.474 106.297 238.749 105.94 238.943C105.583 239.138 105.197 239.234 104.781 239.233Z" fill="#0D080B"/>
</g>
<g clip-path="url(#clip30_39_2432)">
<path d="M125.029 239.181L125.031 238.632L127.39 236.644C127.71 236.372 127.971 236.125 128.173 235.902C128.378 235.68 128.529 235.454 128.626 235.225C128.723 234.996 128.772 234.74 128.772 234.458C128.773 234.151 128.72 233.893 128.612 233.685C128.507 233.474 128.354 233.316 128.153 233.21C127.952 233.104 127.705 233.05 127.414 233.049C127.079 233.048 126.808 233.114 126.6 233.247C126.395 233.377 126.241 233.553 126.138 233.776C126.038 233.999 125.978 234.25 125.959 234.529L125.067 234.252C125.086 233.954 125.194 233.661 125.39 233.374C125.589 233.086 125.861 232.848 126.206 232.66C126.551 232.472 126.952 232.378 127.411 232.38C127.672 232.381 127.934 232.418 128.197 232.494C128.46 232.569 128.702 232.689 128.921 232.854C129.144 233.016 129.322 233.229 129.454 233.493C129.59 233.753 129.657 234.07 129.656 234.442C129.654 234.972 129.509 235.446 129.219 235.863C128.93 236.278 128.526 236.694 128.007 237.111L126.184 238.58L125.594 238.466L129.774 238.479L129.772 239.195L125.029 239.181ZM133.455 239.317C132.643 239.315 132.027 239.015 131.607 238.419C131.19 237.822 130.983 237.011 130.986 235.985C130.988 235.483 131.04 235.015 131.144 234.581C131.247 234.144 131.403 233.763 131.612 233.438C131.824 233.11 132.088 232.855 132.405 232.673C132.722 232.488 133.094 232.396 133.522 232.398C133.962 232.399 134.343 232.492 134.665 232.675C134.99 232.856 135.245 233.083 135.43 233.357C135.615 233.63 135.723 233.908 135.753 234.19L134.902 234.406C134.884 234.006 134.755 233.683 134.514 233.438C134.276 233.192 133.949 233.069 133.534 233.067C133.221 233.066 132.96 233.134 132.752 233.27C132.544 233.405 132.376 233.585 132.248 233.808C132.123 234.03 132.028 234.275 131.962 234.542C131.9 234.805 131.857 235.067 131.834 235.327C131.815 235.587 131.805 235.821 131.804 236.029L131.73 235.955C131.861 235.651 132.078 235.382 132.379 235.147C132.684 234.913 133.079 234.796 133.566 234.797C133.957 234.798 134.316 234.888 134.644 235.066C134.975 235.24 135.24 235.497 135.437 235.835C135.634 236.171 135.732 236.58 135.731 237.064C135.73 237.523 135.634 237.922 135.444 238.263C135.254 238.6 134.988 238.861 134.646 239.046C134.305 239.228 133.908 239.318 133.455 239.317ZM133.457 238.647C133.913 238.649 134.265 238.507 134.514 238.223C134.766 237.935 134.892 237.543 134.894 237.047C134.895 236.548 134.773 236.16 134.525 235.884C134.278 235.607 133.934 235.468 133.494 235.467C133.042 235.465 132.675 235.609 132.395 235.896C132.119 236.18 131.98 236.571 131.978 237.067C131.977 237.55 132.109 237.935 132.375 238.221C132.644 238.504 133.004 238.646 133.457 238.647Z" fill="#0D080B"/>
</g>
<g clip-path="url(#clip31_39_2432)">
<path d="M153.977 239.266L153.979 238.717L156.337 236.729C156.658 236.457 156.919 236.21 157.121 235.987C157.326 235.765 157.477 235.539 157.574 235.31C157.671 235.08 157.72 234.825 157.72 234.543C157.721 234.236 157.668 233.978 157.56 233.77C157.455 233.559 157.302 233.401 157.101 233.295C156.9 233.189 156.653 233.135 156.362 233.134C156.027 233.133 155.756 233.199 155.548 233.332C155.343 233.461 155.189 233.638 155.086 233.861C154.986 234.084 154.926 234.335 154.907 234.613L154.015 234.336C154.034 234.039 154.142 233.746 154.338 233.459C154.537 233.171 154.809 232.933 155.154 232.745C155.499 232.557 155.9 232.463 156.359 232.465C156.62 232.465 156.882 232.503 157.145 232.579C157.408 232.654 157.65 232.774 157.869 232.939C158.092 233.101 158.27 233.314 158.402 233.577C158.538 233.838 158.605 234.155 158.604 234.527C158.602 235.057 158.457 235.531 158.167 235.948C157.878 236.363 157.474 236.779 156.955 237.196L155.132 238.665L154.542 238.551L158.722 238.563L158.72 239.28L153.977 239.266ZM160.478 239.285C160.726 238.132 161.086 237.075 161.557 236.112C162.028 235.146 162.61 234.213 163.304 233.313L159.584 233.302L159.586 232.586L164.134 232.599L164.132 233.227C163.815 233.7 163.514 234.175 163.231 234.652C162.95 235.128 162.693 235.614 162.459 236.11C162.228 236.602 162.028 237.111 161.859 237.638C161.69 238.165 161.559 238.714 161.464 239.288L160.478 239.285Z" fill="#0D080B"/>
</g>
<g clip-path="url(#clip32_39_2432)">
<path d="M182.279 239.349L182.28 238.8L184.639 236.812C184.959 236.54 185.22 236.293 185.422 236.07C185.628 235.848 185.779 235.622 185.876 235.393C185.972 235.163 186.021 234.908 186.022 234.626C186.023 234.319 185.969 234.061 185.861 233.853C185.757 233.642 185.604 233.484 185.402 233.378C185.201 233.272 184.955 233.218 184.664 233.217C184.329 233.216 184.057 233.282 183.849 233.415C183.644 233.544 183.49 233.721 183.387 233.944C183.287 234.167 183.228 234.418 183.208 234.696L182.316 234.42C182.336 234.122 182.444 233.829 182.64 233.542C182.839 233.254 183.111 233.016 183.456 232.828C183.8 232.64 184.202 232.546 184.661 232.548C184.921 232.548 185.183 232.586 185.446 232.662C185.71 232.737 185.951 232.857 186.171 233.022C186.394 233.184 186.571 233.397 186.704 233.66C186.839 233.921 186.907 234.238 186.906 234.61C186.904 235.14 186.758 235.614 186.469 236.031C186.179 236.446 185.775 236.862 185.256 237.279L183.434 238.748L182.843 238.634L187.024 238.646L187.022 239.363L182.279 239.349ZM190.453 239.484C189.995 239.483 189.587 239.398 189.231 239.23C188.878 239.058 188.601 238.82 188.401 238.516C188.203 238.211 188.105 237.861 188.106 237.464C188.108 237.039 188.236 236.66 188.491 236.326C188.746 235.988 189.119 235.776 189.609 235.687C189.352 235.624 189.127 235.526 188.935 235.392C188.744 235.258 188.595 235.095 188.49 234.903C188.389 234.707 188.338 234.49 188.339 234.251C188.34 233.926 188.431 233.636 188.611 233.382C188.795 233.126 189.047 232.925 189.366 232.78C189.689 232.635 190.06 232.563 190.478 232.565C190.9 232.566 191.269 232.64 191.584 232.787C191.903 232.933 192.152 233.135 192.331 233.393C192.51 233.648 192.6 233.938 192.599 234.264C192.598 234.502 192.545 234.719 192.439 234.914C192.336 235.106 192.189 235.268 192 235.401C191.81 235.534 191.587 235.631 191.329 235.692C191.819 235.784 192.19 235.999 192.444 236.337C192.697 236.673 192.823 237.053 192.822 237.478C192.82 237.874 192.719 238.225 192.516 238.528C192.314 238.831 192.034 239.067 191.677 239.237C191.323 239.403 190.915 239.486 190.453 239.484ZM190.46 238.75C190.922 238.751 191.287 238.633 191.554 238.395C191.821 238.157 191.956 237.83 191.957 237.415C191.958 237.009 191.826 236.684 191.56 236.442C191.294 236.196 190.93 236.072 190.468 236.071C190.009 236.07 189.643 236.191 189.37 236.435C189.099 236.676 188.963 237 188.962 237.406C188.961 237.824 189.095 238.153 189.364 238.393C189.636 238.629 190.001 238.748 190.46 238.75ZM190.47 235.383C190.87 235.384 191.185 235.293 191.415 235.111C191.645 234.929 191.76 234.675 191.761 234.35C191.762 234.012 191.648 233.743 191.42 233.544C191.191 233.342 190.876 233.24 190.476 233.239C190.076 233.238 189.76 233.338 189.527 233.538C189.294 233.736 189.177 234.004 189.176 234.342C189.175 234.667 189.29 234.922 189.522 235.106C189.754 235.289 190.07 235.382 190.47 235.383Z" fill="#0D080B"/>
</g>
<g clip-path="url(#clip33_39_2432)">
<path d="M210.701 239.432L210.703 238.883L213.062 236.895C213.382 236.623 213.643 236.376 213.845 236.154C214.05 235.931 214.201 235.705 214.298 235.476C214.395 235.247 214.444 234.991 214.444 234.709C214.445 234.402 214.392 234.145 214.284 233.937C214.179 233.726 214.026 233.567 213.825 233.461C213.624 233.355 213.377 233.302 213.086 233.301C212.751 233.3 212.48 233.366 212.272 233.498C212.067 233.628 211.913 233.804 211.81 234.027C211.71 234.25 211.65 234.501 211.631 234.78L210.739 234.503C210.758 234.205 210.866 233.913 211.062 233.625C211.261 233.337 211.533 233.099 211.878 232.911C212.223 232.723 212.625 232.63 213.083 232.631C213.344 232.632 213.606 232.67 213.869 232.745C214.132 232.82 214.374 232.94 214.593 233.105C214.816 233.267 214.994 233.48 215.126 233.744C215.262 234.005 215.329 234.321 215.328 234.693C215.327 235.223 215.181 235.697 214.891 236.115C214.602 236.529 214.198 236.945 213.679 237.362L211.856 238.831L211.266 238.718L215.446 238.73L215.444 239.446L210.701 239.432ZM219.015 239.568C218.56 239.567 218.169 239.476 217.844 239.295C217.522 239.111 217.27 238.882 217.088 238.609C216.909 238.336 216.805 238.06 216.775 237.78L217.626 237.56C217.644 237.966 217.765 238.29 217.991 238.533C218.216 238.775 218.56 238.897 219.022 238.898C219.326 238.899 219.577 238.832 219.776 238.696C219.975 238.56 220.132 238.381 220.247 238.158C220.366 237.935 220.453 237.692 220.51 237.429C220.566 237.162 220.604 236.899 220.624 236.638C220.643 236.378 220.655 236.144 220.658 235.936L220.732 236.067C220.601 236.367 220.383 236.636 220.079 236.874C219.778 237.109 219.387 237.225 218.906 237.224C218.512 237.223 218.15 237.132 217.819 236.951C217.491 236.767 217.226 236.504 217.026 236.163C216.828 235.821 216.73 235.41 216.732 234.93C216.733 234.462 216.832 234.057 217.028 233.717C217.228 233.373 217.503 233.109 217.854 232.924C218.205 232.739 218.608 232.647 219.064 232.649C219.519 232.65 219.902 232.741 220.211 232.922C220.521 233.099 220.768 233.346 220.953 233.663C221.142 233.977 221.275 234.338 221.355 234.748C221.437 235.157 221.478 235.593 221.476 236.055C221.475 236.517 221.429 236.959 221.338 237.38C221.25 237.801 221.107 238.178 220.911 238.509C220.718 238.837 220.465 239.096 220.151 239.288C219.84 239.476 219.462 239.569 219.015 239.568ZM219.01 236.555C219.463 236.556 219.828 236.408 220.104 236.111C220.381 235.815 220.52 235.409 220.522 234.894C220.523 234.408 220.394 234.024 220.135 233.745C219.878 233.462 219.524 233.32 219.071 233.318C218.612 233.317 218.254 233.462 217.995 233.752C217.737 234.04 217.607 234.436 217.606 234.942C217.605 235.438 217.727 235.83 217.975 236.119C218.225 236.408 218.57 236.553 219.01 236.555Z" fill="#0D080B"/>
</g>
<g clip-path="url(#clip34_39_2432)">
<path d="M41.5003 267.619C41.0849 267.618 40.7007 267.536 40.3478 267.374C39.9979 267.212 39.7103 266.977 39.4849 266.669C39.2595 266.358 39.1273 265.98 39.0883 265.533L39.9354 265.271C39.968 265.77 40.1188 266.175 40.3876 266.486C40.6564 266.794 41.0233 266.948 41.4883 266.949C41.9069 266.951 42.2544 266.831 42.5311 266.59C42.8108 266.346 42.9513 265.994 42.9527 265.535C42.9532 265.356 42.915 265.165 42.8381 264.963C42.7643 264.758 42.6299 264.584 42.435 264.441C42.2402 264.298 41.9629 264.226 41.6033 264.225L40.6825 264.222L40.6846 263.515L41.5309 263.518C41.9247 263.519 42.2257 263.416 42.434 263.209C42.6454 262.998 42.7515 262.762 42.7523 262.498C42.7532 262.188 42.6455 261.923 42.4291 261.702C42.2128 261.481 41.9062 261.37 41.5093 261.369C41.0195 261.368 40.6595 261.506 40.4292 261.784C40.2021 262.063 40.0708 262.45 40.0352 262.946L39.1896 262.678C39.2092 262.359 39.3171 262.048 39.5133 261.745C39.7095 261.441 39.9799 261.191 40.3246 260.994C40.6693 260.796 41.0742 260.698 41.5392 260.7C41.9205 260.701 42.266 260.776 42.5756 260.926C42.8882 261.076 43.1357 261.281 43.3178 261.542C43.5 261.8 43.5905 262.098 43.5896 262.435C43.5889 262.659 43.5418 262.865 43.4482 263.054C43.3547 263.239 43.2147 263.399 43.0283 263.531C42.8419 263.664 42.606 263.763 42.3206 263.827C42.7916 263.912 43.1615 264.113 43.4302 264.43C43.7021 264.744 43.8375 265.107 43.8363 265.519C43.8352 265.891 43.7676 266.21 43.6335 266.477C43.5025 266.743 43.3252 266.961 43.1015 267.131C42.8777 267.298 42.6278 267.421 42.3517 267.501C42.0755 267.58 41.7917 267.62 41.5003 267.619ZM47.634 267.637C46.859 267.635 46.2584 267.331 45.8324 266.725C45.4063 266.116 45.1949 265.264 45.1981 264.17C45.2013 263.076 45.4177 262.227 45.8473 261.624C46.2769 261.017 46.8793 260.715 47.6543 260.717C48.4325 260.72 49.033 261.025 49.456 261.634C49.882 262.24 50.0934 263.09 50.0902 264.184C50.087 265.279 49.8706 266.129 49.441 266.736C49.0145 267.339 48.4122 267.639 47.634 267.637ZM47.636 266.967C48.1506 266.969 48.5404 266.733 48.8053 266.259C49.0702 265.786 49.204 265.093 49.2067 264.182C49.2093 263.27 49.0796 262.577 48.8175 262.102C48.5554 261.627 48.167 261.389 47.6524 261.387C47.1377 261.386 46.748 261.622 46.4831 262.095C46.2181 262.569 46.0844 263.261 46.0817 264.173C46.079 265.084 46.2087 265.777 46.4709 266.253C46.733 266.728 47.1214 266.966 47.636 266.967Z" fill="#0D080B"/>
</g>
<path d="M73.2667 267.601L73.2823 262.267C73.0368 262.477 72.8069 262.654 72.5925 262.8C72.3782 262.942 72.1391 263.062 71.8753 263.16L71.8776 262.37C72.0142 262.305 72.1586 262.225 72.3108 262.129C72.463 262.03 72.6355 261.887 72.8283 261.698C73.0241 261.506 73.2497 261.242 73.5049 260.905L74.1048 260.907L74.0851 267.603L73.2667 267.601Z" fill="#49454F"/>
<path d="M99.3873 267.677L99.3889 267.129L101.748 265.14C102.068 264.869 102.329 264.621 102.531 264.399C102.736 264.176 102.888 263.95 102.984 263.721C103.081 263.492 103.13 263.236 103.131 262.954C103.132 262.647 103.078 262.39 102.97 262.182C102.865 261.971 102.712 261.812 102.511 261.706C102.31 261.6 102.064 261.547 101.772 261.546C101.437 261.545 101.166 261.611 100.958 261.743C100.753 261.873 100.599 262.049 100.496 262.272C100.396 262.495 100.336 262.746 100.317 263.025L99.425 262.748C99.4445 262.45 99.5523 262.158 99.7484 261.87C99.9477 261.582 100.22 261.344 100.564 261.156C100.909 260.968 101.311 260.875 101.77 260.876C102.03 260.877 102.292 260.915 102.555 260.99C102.818 261.065 103.06 261.185 103.28 261.35C103.502 261.512 103.68 261.725 103.812 261.989C103.948 262.25 104.015 262.566 104.014 262.938C104.013 263.468 103.867 263.942 103.578 264.36C103.288 264.774 102.884 265.19 102.365 265.607L100.542 267.076L99.9521 266.963L104.133 266.975L104.131 267.691L99.3873 267.677Z" fill="#49454F"/>
<path d="M130.372 267.88C129.956 267.879 129.572 267.797 129.219 267.635C128.869 267.472 128.582 267.237 128.356 266.93C128.131 266.619 127.999 266.241 127.96 265.794L128.807 265.531C128.839 266.031 128.99 266.436 129.259 266.746C129.528 267.054 129.895 267.209 130.36 267.21C130.778 267.211 131.126 267.091 131.402 266.85C131.682 266.606 131.823 266.255 131.824 265.796C131.825 265.616 131.786 265.425 131.71 265.224C131.636 265.019 131.501 264.845 131.306 264.702C131.112 264.558 130.834 264.486 130.475 264.485L129.554 264.483L129.556 263.776L130.402 263.778C130.796 263.779 131.097 263.676 131.305 263.469C131.517 263.259 131.623 263.022 131.624 262.759C131.625 262.449 131.517 262.183 131.301 261.963C131.084 261.742 130.778 261.631 130.381 261.63C129.891 261.628 129.531 261.767 129.301 262.045C129.074 262.323 128.942 262.711 128.907 263.207L128.061 262.939C128.081 262.62 128.188 262.308 128.385 262.005C128.581 261.702 128.851 261.452 129.196 261.254C129.541 261.057 129.946 260.959 130.411 260.96C130.792 260.961 131.137 261.037 131.447 261.186C131.76 261.336 132.007 261.542 132.189 261.802C132.371 262.06 132.462 262.358 132.461 262.696C132.46 262.919 132.413 263.125 132.32 263.314C132.226 263.5 132.086 263.659 131.9 263.792C131.713 263.925 131.477 264.023 131.192 264.087C131.663 264.173 132.033 264.374 132.302 264.691C132.574 265.005 132.709 265.368 132.708 265.78C132.707 266.152 132.639 266.471 132.505 266.737C132.374 267.004 132.197 267.222 131.973 267.392C131.749 267.558 131.499 267.682 131.223 267.761C130.947 267.841 130.663 267.881 130.372 267.88Z" fill="#49454F"/>
<path d="M159.836 267.854L159.843 265.641L159.852 265.641L159.864 261.679L160.067 262.126L157.09 265.642L156.811 265.4L161.443 265.413L161.441 266.129L156.437 266.115L156.44 265.315L159.981 261.158L160.674 261.16L160.655 267.857L159.836 267.854Z" fill="#49454F"/>
<path d="M187.538 268.047C187.15 268.046 186.78 267.966 186.427 267.807C186.074 267.645 185.779 267.41 185.541 267.102C185.306 266.791 185.169 266.413 185.13 265.966L185.977 265.704C186.01 266.175 186.151 266.572 186.402 266.895C186.655 267.215 187.025 267.376 187.512 267.378C187.812 267.379 188.076 267.308 188.303 267.166C188.533 267.021 188.713 266.822 188.844 266.568C188.975 266.314 189.041 266.023 189.042 265.694C189.043 265.195 188.9 264.812 188.613 264.544C188.328 264.277 187.974 264.142 187.549 264.141C187.174 264.14 186.879 264.234 186.665 264.422C186.453 264.608 186.298 264.816 186.198 265.049L185.389 264.963L185.67 261.234L189.501 261.245L189.499 261.961L186.36 261.952L186.176 264.481L185.948 264.462C186.117 264.177 186.35 263.938 186.648 263.743C186.946 263.549 187.309 263.452 187.737 263.453C188.146 263.455 188.513 263.549 188.838 263.736C189.163 263.923 189.42 264.182 189.608 264.515C189.796 264.847 189.89 265.232 189.888 265.669C189.887 266.152 189.777 266.574 189.559 266.933C189.341 267.288 189.053 267.564 188.696 267.758C188.339 267.952 187.953 268.049 187.538 268.047Z" fill="#49454F"/>
<path d="M216.179 268.131C215.366 268.129 214.75 267.83 214.33 267.233C213.914 266.637 213.707 265.825 213.71 264.799C213.711 264.297 213.764 263.829 213.867 263.395C213.971 262.958 214.127 262.578 214.336 262.253C214.548 261.925 214.812 261.67 215.129 261.488C215.445 261.303 215.818 261.211 216.245 261.212C216.686 261.213 217.067 261.306 217.389 261.49C217.714 261.67 217.969 261.897 218.154 262.171C218.339 262.444 218.447 262.722 218.477 263.004L217.625 263.22C217.608 262.82 217.479 262.497 217.238 262.252C217 262.006 216.673 261.883 216.257 261.882C215.944 261.881 215.684 261.948 215.476 262.084C215.267 262.22 215.1 262.399 214.972 262.622C214.847 262.845 214.752 263.089 214.686 263.356C214.623 263.619 214.581 263.881 214.558 264.141C214.539 264.402 214.529 264.636 214.528 264.843L214.454 264.769C214.585 264.465 214.801 264.196 215.103 263.962C215.407 263.727 215.803 263.61 216.29 263.612C216.68 263.613 217.04 263.702 217.368 263.88C217.699 264.054 217.963 264.311 218.161 264.649C218.358 264.985 218.456 265.394 218.455 265.878C218.453 266.337 218.358 266.736 218.167 267.077C217.977 267.414 217.712 267.675 217.37 267.86C217.028 268.042 216.631 268.133 216.179 268.131ZM216.181 267.462C216.636 267.463 216.989 267.321 217.238 267.037C217.489 266.749 217.616 266.358 217.618 265.862C217.619 265.362 217.496 264.975 217.249 264.698C217.002 264.421 216.658 264.282 216.218 264.281C215.765 264.28 215.399 264.423 215.119 264.71C214.842 264.995 214.703 265.385 214.702 265.881C214.7 266.365 214.833 266.749 215.098 267.035C215.367 267.318 215.728 267.46 216.181 267.462Z" fill="#49454F"/>
<g clip-path="url(#clip35_39_2432)">
<path d="M40.9237 300.923C39.1903 300.917 38.0437 299.781 38.0488 298.039C38.0539 296.297 39.2072 295.167 40.9405 295.173C42.5155 295.177 43.6131 296.014 43.6092 297.347L43.6088 297.464L42.6172 297.461L42.6175 297.344C42.62 296.494 42.0797 296.034 40.9463 296.031C39.638 296.027 39.0029 296.65 38.9988 298.042C38.9947 299.434 39.6262 300.052 40.9345 300.056C42.0679 300.059 42.6109 299.611 42.6134 298.752L42.6137 298.644L43.6054 298.647L43.605 298.755C43.6011 300.097 42.507 300.927 40.9237 300.923ZM45.3107 300.852L44.4107 300.849L44.4271 295.266L45.3271 295.269L45.3107 300.852ZM48.376 300.944C47.0177 300.94 46.1283 300.171 46.1323 298.788C46.1361 297.496 47.022 296.632 48.372 296.636C49.6553 296.64 50.5282 297.351 50.5245 298.609C50.5241 298.759 50.5154 298.876 50.4901 299.001L46.9734 298.99C47.0044 299.79 47.3948 300.217 48.3531 300.219C49.2198 300.222 49.579 299.94 49.5804 299.448L49.5806 299.381L50.4806 299.384L50.4804 299.459C50.4778 300.342 49.6093 300.948 48.376 300.944ZM48.3532 297.344C47.4366 297.342 47.0354 297.749 46.9832 298.49L49.6749 298.498L49.6749 298.482C49.6772 297.715 49.2366 297.347 48.3532 297.344ZM52.5572 300.957C51.6989 300.954 51.1584 300.553 51.1604 299.869C51.1623 299.228 51.6799 298.896 52.4969 298.806L54.3808 298.612L54.3815 298.37C54.3835 297.687 54.0842 297.444 53.2925 297.442C52.5259 297.44 52.1501 297.689 52.1484 298.297L52.1483 298.33L51.2566 298.328L51.2567 298.294C51.2595 297.353 52.0449 296.647 53.3615 296.651C54.6782 296.655 55.2677 297.373 55.2648 298.365L55.2575 300.881L54.4325 300.879L54.4355 299.845L54.3772 299.845C54.1584 300.545 53.4989 300.959 52.5572 300.957ZM52.0606 299.814C52.0596 300.147 52.2841 300.306 52.8008 300.307C53.7425 300.31 54.3768 299.962 54.3792 299.145L52.7537 299.324C52.2868 299.381 52.0615 299.489 52.0606 299.814ZM57.1096 300.887L56.2096 300.884L56.2218 296.742L57.0468 296.745L57.0435 297.861L57.1018 297.862C57.2288 297.195 57.6804 296.663 58.5304 296.666C59.472 296.669 59.8784 297.345 59.8761 298.128L59.8745 298.67L58.9828 298.667L58.9839 298.3C58.9856 297.709 58.7364 297.433 58.1198 297.431C57.4114 297.429 57.1186 297.82 57.1165 298.562L57.1096 300.887Z" fill="#A30162"/>
</g>
<g clip-path="url(#clip36_39_2432)">
<path d="M158.524 301.267C156.791 301.262 155.644 300.126 155.65 298.384C155.655 296.642 156.808 295.512 158.541 295.517C160.116 295.522 161.214 296.359 161.21 297.692L161.21 297.809L160.218 297.806L160.218 297.689C160.221 296.839 159.68 296.379 158.547 296.376C157.239 296.372 156.604 296.995 156.6 298.387C156.595 299.778 157.227 300.397 158.535 300.401C159.669 300.404 160.212 299.956 160.214 299.097L160.214 298.989L161.206 298.992L161.206 299.1C161.202 300.442 160.108 301.272 158.524 301.267ZM163.228 301.281C162.37 301.279 161.829 300.877 161.831 300.194C161.833 299.552 162.351 299.22 163.168 299.131L165.051 298.937L165.052 298.695C165.054 298.012 164.755 297.769 163.963 297.767C163.197 297.764 162.821 298.013 162.819 298.622L162.819 298.655L161.927 298.652L161.927 298.619C161.93 297.677 162.716 296.971 164.032 296.975C165.349 296.979 165.938 297.697 165.936 298.689L165.928 301.206L165.103 301.203L165.106 300.17L165.048 300.17C164.829 300.869 164.17 301.284 163.228 301.281ZM162.731 300.138C162.73 300.471 162.955 300.63 163.471 300.632C164.413 300.635 165.047 300.287 165.05 299.47L163.424 299.648C162.958 299.705 162.732 299.813 162.731 300.138ZM167.78 301.211L166.88 301.209L166.892 297.067L167.717 297.069L167.714 298.353L167.772 298.353C167.899 297.653 168.451 296.988 169.501 296.991C170.651 296.995 171.215 297.771 171.213 298.73L171.205 301.221L170.305 301.219L170.312 298.969C170.314 298.194 169.965 297.801 169.107 297.798C168.199 297.796 167.789 298.261 167.786 299.161L167.78 301.211ZM174.247 301.313C172.881 301.309 171.992 300.432 171.995 299.157C171.999 297.865 172.893 297.001 174.26 297.005C175.502 297.009 176.408 297.711 176.405 298.745L176.405 298.828L175.513 298.826L175.513 298.776C175.515 298.134 175.049 297.816 174.241 297.813C173.308 297.811 172.89 298.251 172.887 299.159C172.885 300.051 173.3 300.502 174.233 300.505C175.042 300.507 175.509 300.192 175.511 299.551L175.511 299.492L176.403 299.495L176.403 299.586C176.4 300.62 175.489 301.317 174.247 301.313ZM179.295 301.328C177.937 301.324 177.047 300.555 177.051 299.172C177.055 297.88 177.941 297.016 179.291 297.02C180.574 297.024 181.447 297.735 181.444 298.993C181.443 299.143 181.435 299.26 181.409 299.384L177.893 299.374C177.924 300.174 178.314 300.6 179.272 300.603C180.139 300.606 180.498 300.323 180.5 299.832L180.5 299.765L181.4 299.768L181.4 299.843C181.397 300.726 180.528 301.332 179.295 301.328ZM179.272 297.728C178.356 297.726 177.955 298.133 177.902 298.874L180.594 298.882L180.594 298.865C180.596 298.099 180.156 297.731 179.272 297.728ZM183.16 301.256L182.26 301.254L182.276 295.67L183.176 295.673L183.16 301.256Z" fill="#A30162"/>
</g>
<g clip-path="url(#clip37_39_2432)">
<path d="M206.569 301.408C204.819 301.403 203.664 300.266 203.669 298.525C203.674 296.783 204.835 295.653 206.585 295.658C208.352 295.664 209.499 296.8 209.494 298.542C209.489 300.284 208.335 301.413 206.569 301.408ZM206.571 300.542C207.896 300.546 208.54 299.931 208.544 298.539C208.548 297.147 207.908 296.521 206.583 296.517C205.258 296.513 204.623 297.136 204.619 298.528C204.615 299.919 205.246 300.538 206.571 300.542ZM211.199 301.339L210.299 301.336L210.316 295.753L211.216 295.755L211.209 298.139L212.9 298.144L214.541 295.765L215.607 295.768L213.649 298.521L215.583 301.351L214.516 301.348L212.914 299.01L211.206 299.005L211.199 301.339Z" fill="#A30162"/>
</g>
</g>
</g>
<defs>
<filter id="filter0_d_39_2432" x="-76.9226" y="-11.3547" width="408.003" height="474.606" filterUnits="userSpaceOnUse" color-interpolation-filters="sRGB">
<feFlood flood-opacity="0" result="BackgroundImageFix"/>
<feColorMatrix in="SourceAlpha" type="matrix" values="0 0 0 0 0 0 0 0 0 0 0 0 0 0 0 0 0 0 127 0" result="hardAlpha"/>
<feOffset dy="48"/>
<feGaussianBlur stdDeviation="50"/>
<feColorMatrix type="matrix" values="0 0 0 0 0.0666667 0 0 0 0 0.0470588 0 0 0 0 0.180392 0 0 0 0.15 0"/>
<feBlend mode="normal" in2="BackgroundImageFix" result="effect1_dropShadow_39_2432"/>
<feBlend mode="normal" in="SourceGraphic" in2="effect1_dropShadow_39_2432" result="shape"/>
</filter>
<clipPath id="clip0_39_2432">
<rect x="23.8809" y="40.6453" width="207.2" height="273.81" rx="5.95238" transform="rotate(0.168029 23.8809 40.6453)" fill="white"/>
</clipPath>
<clipPath id="clip1_39_2432">
<rect x="26.2409" y="47.795" width="23.8095" height="23.8095" rx="11.9048" transform="rotate(0.168029 26.2409 47.795)" fill="white"/>
</clipPath>
<clipPath id="clip2_39_2432">
<rect x="93.4311" y="47.9921" width="23.8095" height="23.8095" rx="11.9048" transform="rotate(0.168029 93.4311 47.9921)" fill="white"/>
</clipPath>
<clipPath id="clip3_39_2432">
<rect x="133.679" y="48.1101" width="23.8095" height="23.8095" rx="11.9048" transform="rotate(0.168029 133.679 48.1101)" fill="white"/>
</clipPath>
<clipPath id="clip4_39_2432">
<rect x="204.869" y="48.3189" width="23.8095" height="23.8095" rx="11.9048" transform="rotate(0.168029 204.869 48.3189)" fill="white"/>
</clipPath>
<clipPath id="clip5_39_2432">
<rect x="204.63" y="110.223" width="23.8095" height="23.8095" rx="11.9048" transform="rotate(0.168029 204.63 110.223)" fill="white"/>
</clipPath>
<clipPath id="clip6_39_2432">
<rect x="33.1184" y="138.292" width="23.8095" height="23.8095" rx="11.9048" transform="rotate(0.168029 33.1184 138.292)" fill="white"/>
</clipPath>
<clipPath id="clip7_39_2432">
<rect x="61.6897" y="138.376" width="23.8095" height="23.8095" rx="11.9048" transform="rotate(0.168029 61.6897 138.376)" fill="white"/>
</clipPath>
<clipPath id="clip8_39_2432">
<rect x="90.261" y="138.46" width="23.8095" height="23.8095" rx="11.9048" transform="rotate(0.168029 90.261 138.46)" fill="white"/>
</clipPath>
<clipPath id="clip9_39_2432">
<rect x="118.832" y="138.543" width="23.8095" height="23.8095" rx="11.9048" transform="rotate(0.168029 118.832 138.543)" fill="white"/>
</clipPath>
<clipPath id="clip10_39_2432">
<rect x="147.404" y="138.627" width="23.8095" height="23.8095" rx="11.9048" transform="rotate(0.168029 147.404 138.627)" fill="white"/>
</clipPath>
<clipPath id="clip11_39_2432">
<rect x="175.975" y="138.711" width="23.8095" height="23.8095" rx="11.9048" transform="rotate(0.168029 175.975 138.711)" fill="white"/>
</clipPath>
<clipPath id="clip12_39_2432">
<rect x="204.546" y="138.795" width="23.8095" height="23.8095" rx="11.9048" transform="rotate(0.168029 204.546 138.795)" fill="white"/>
</clipPath>
<clipPath id="clip13_39_2432">
<rect x="33.0346" y="166.863" width="23.8095" height="23.8095" rx="11.9048" transform="rotate(0.168029 33.0346 166.863)" fill="white"/>
</clipPath>
<clipPath id="clip14_39_2432">
<rect x="61.6059" y="166.947" width="23.8095" height="23.8095" rx="11.9048" transform="rotate(0.168029 61.6059 166.947)" fill="white"/>
</clipPath>
<clipPath id="clip15_39_2432">
<rect x="90.1772" y="167.031" width="23.8095" height="23.8095" rx="11.9048" transform="rotate(0.168029 90.1772 167.031)" fill="white"/>
</clipPath>
<clipPath id="clip16_39_2432">
<rect x="118.749" y="167.114" width="23.8095" height="23.8095" rx="11.9048" transform="rotate(0.168029 118.749 167.114)" fill="white"/>
</clipPath>
<clipPath id="clip17_39_2432">
<rect x="147.32" y="167.198" width="23.8095" height="23.8095" rx="11.9048" transform="rotate(0.168029 147.32 167.198)" fill="white"/>
</clipPath>
<clipPath id="clip18_39_2432">
<rect x="175.891" y="167.282" width="23.8095" height="23.8095" rx="11.9048" transform="rotate(0.168029 175.891 167.282)" fill="white"/>
</clipPath>
<clipPath id="clip19_39_2432">
<rect x="204.462" y="167.366" width="23.8095" height="23.8095" rx="11.9048" transform="rotate(0.168029 204.462 167.366)" fill="white"/>
</clipPath>
<clipPath id="clip20_39_2432">
<rect x="32.9508" y="195.434" width="23.8095" height="23.8095" rx="11.9048" transform="rotate(0.168029 32.9508 195.434)" fill="white"/>
</clipPath>
<clipPath id="clip21_39_2432">
<rect x="61.5221" y="195.518" width="23.8095" height="23.8095" rx="11.9048" transform="rotate(0.168029 61.5221 195.518)" fill="white"/>
</clipPath>
<clipPath id="clip22_39_2432">
<rect x="90.0934" y="195.602" width="23.8095" height="23.8095" rx="11.9048" transform="rotate(0.168029 90.0934 195.602)" fill="white"/>
</clipPath>
<clipPath id="clip23_39_2432">
<rect x="118.665" y="195.686" width="23.8095" height="23.8095" rx="11.9048" transform="rotate(0.168029 118.665 195.686)" fill="white"/>
</clipPath>
<clipPath id="clip24_39_2432">
<rect x="147.236" y="195.77" width="23.8095" height="23.8095" rx="11.9048" transform="rotate(0.168029 147.236 195.77)" fill="white"/>
</clipPath>
<clipPath id="clip25_39_2432">
<rect x="175.807" y="195.853" width="23.8095" height="23.8095" rx="11.9048" transform="rotate(0.168029 175.807 195.853)" fill="white"/>
</clipPath>
<clipPath id="clip26_39_2432">
<rect x="204.379" y="195.937" width="23.8095" height="23.8095" rx="11.9048" transform="rotate(0.168029 204.379 195.937)" fill="white"/>
</clipPath>
<clipPath id="clip27_39_2432">
<rect x="32.867" y="224.006" width="23.8095" height="23.8095" rx="11.9048" transform="rotate(0.168029 32.867 224.006)" fill="white"/>
</clipPath>
<clipPath id="clip28_39_2432">
<rect x="61.4383" y="224.09" width="23.8095" height="23.8095" rx="11.9048" transform="rotate(0.168029 61.4383 224.09)" fill="white"/>
</clipPath>
<clipPath id="clip29_39_2432">
<rect x="90.0096" y="224.173" width="23.8095" height="23.8095" rx="11.9048" transform="rotate(0.168029 90.0096 224.173)" fill="white"/>
</clipPath>
<clipPath id="clip30_39_2432">
<rect x="118.581" y="224.257" width="23.8095" height="23.8095" rx="11.9048" transform="rotate(0.168029 118.581 224.257)" fill="white"/>
</clipPath>
<clipPath id="clip31_39_2432">
<rect x="147.152" y="224.341" width="23.8095" height="23.8095" rx="11.9048" transform="rotate(0.168029 147.152 224.341)" fill="white"/>
</clipPath>
<clipPath id="clip32_39_2432">
<rect x="175.724" y="224.425" width="23.8095" height="23.8095" rx="11.9048" transform="rotate(0.168029 175.724 224.425)" fill="white"/>
</clipPath>
<clipPath id="clip33_39_2432">
<rect x="204.295" y="224.508" width="23.8095" height="23.8095" rx="11.9048" transform="rotate(0.168029 204.295 224.508)" fill="white"/>
</clipPath>
<clipPath id="clip34_39_2432">
<rect x="32.7832" y="252.577" width="23.8095" height="23.8095" rx="11.9048" transform="rotate(0.168029 32.7832 252.577)" fill="white"/>
</clipPath>
<clipPath id="clip35_39_2432">
<rect x="30.3045" y="285.903" width="37.2857" height="23.8095" rx="11.9048" transform="rotate(0.168029 30.3045 285.903)" fill="white"/>
</clipPath>
<clipPath id="clip36_39_2432">
<rect x="147.885" y="286.248" width="43.2857" height="23.8095" rx="11.9048" transform="rotate(0.168029 147.885 286.248)" fill="white"/>
</clipPath>
<clipPath id="clip37_39_2432">
<rect x="195.932" y="286.389" width="27.2857" height="23.8095" rx="11.9048" transform="rotate(0.168029 195.932 286.389)" fill="white"/>
</clipPath>
</defs>
</svg>
