<svg width="85" height="85" viewBox="0 0 85 85" fill="none" xmlns="http://www.w3.org/2000/svg">
<path fill-rule="evenodd" clip-rule="evenodd" d="M27.7947 34.9781C29.2518 36.6415 33.5145 37.6996 34.4249 36.0548C34.8098 35.334 34.6003 35.0853 32.4486 33.8084C27.3239 30.7842 26.6168 33.6463 27.7947 34.9781ZM41.9633 29.5947C42.6019 31.2955 44.4058 30.1735 44.4976 28.0277C44.5781 25.8348 44.2251 22.9585 43.8108 21.1539C43.5047 19.3432 41.5953 19.9023 41.2722 21.8744C40.8731 24.1938 41.5105 28.4174 41.9633 29.5947ZM18.2625 47.8204C17.5834 49.1005 24.6341 50.4748 26.0549 49.3353C27.7078 48.0003 27.5333 47.5239 25.1354 46.9643C21.3509 46.0703 19.0349 46.3484 18.2625 47.8204ZM39.0283 40.8495C38.9313 41.9795 38.9137 43.4395 38.9669 44.0748C39.5893 49.7278 39.5841 49.7888 37.7611 49.8785C33.5716 50.1189 28.2404 52.3688 31.8895 55.0203C34.1067 56.6105 38.7454 59.0238 40.1764 59.9157C43.9267 62.2836 44.9206 62.3535 46.3816 60.3868C49.987 55.4812 56.4259 50.0035 61.9316 47.1533C63.2991 46.4553 63.2537 46.2668 61.4293 43.8643C57.7386 39.0094 56.5996 32.2046 55.3711 30.7454C53.9891 29.1038 51.9215 32.9414 50.4879 39.787L50.3359 40.4816L49.3734 40.5836C47.4012 40.799 47.3295 41.9927 49.2291 42.8019C50.7727 43.4574 51.5747 43.4339 52.335 41.7454C52.7714 40.783 53.2244 39.2681 53.7989 37.0561C54.0276 36.1834 54.2546 35.5107 54.2965 35.5604C54.4919 35.7925 57.138 40.9885 57.152 41.0051L54.4501 42.9115C52.3739 44.5178 53.0352 45.7744 55.3732 44.3445C55.6166 44.1961 57.9625 42.6745 57.9625 42.6745C57.9625 42.6745 58.6613 43.6729 58.8759 44.3989C59.0739 45.1389 58.7711 45.6206 57.8958 45.9608C51.0933 48.6844 44.2221 58.1247 44.2055 58.1386C43.9323 58.4536 34.6394 53.2718 34.6761 52.8442C34.6813 52.7831 35.211 52.7056 35.8602 52.669C43.104 52.1523 43.4846 51.6619 42.446 44.4041L41.9542 40.993L43.1855 41.3448C46.7736 42.3758 48.1492 39.4325 45.4232 38.7524C44.5035 38.535 43.0645 38.2731 40.7896 37.8932C39.7591 37.7125 39.2197 38.6199 39.0283 40.8495ZM60.3915 22.4384C60.0877 23.2892 59.4832 28.8984 59.5931 29.7693C59.8608 31.6691 61.7231 30.5829 62.2495 28.2129C62.8712 25.4511 63.4101 21.1438 63.1588 20.8453C62.6728 20.2344 60.8131 21.2901 60.3915 22.4384ZM26.006 64.9606C28.9295 63.5193 30.448 62.496 30.7439 61.7368C31.2344 60.5021 30.5267 60.5028 27.9576 61.7592C27.7167 61.8769 25.2994 62.9771 23.9563 64.1079C22.9946 64.9176 21.3023 67.249 26.006 64.9606Z" fill="#FF56D8"/>
</svg>
