<svg width="60" height="60" viewBox="0 0 60 60" fill="none" xmlns="http://www.w3.org/2000/svg">
<path d="M49.5189 24.4485L48.6835 21.6295L49.6232 20.4028C53.0948 15.835 46.6476 8.68312 41.5317 11.4238C40.9836 11.7109 40.3311 11.737 39.3915 11.5021C37.6687 11.0584 32.0308 10.1187 30.8823 9.9882C27.0714 9.51837 28.1154 11.3716 29.7598 11.5282C33.4663 11.9197 33.388 11.7109 32.3961 12.755C30.8561 14.3994 32.1873 20.8204 34.6409 23.6133C36.8595 26.1451 42.2365 27.5024 43.907 25.9363C47.2219 22.8041 46.3084 37.3166 42.8891 41.7539C32.2396 55.6139 9.79205 42.2499 13.8378 24.4485L14.3077 22.3604L16.2392 23.6394C19.6063 25.8841 20.9897 24.7617 18.4056 21.8906C14.1771 17.2184 15.6128 11.2672 20.0501 15.0519C21.5379 16.3309 23.365 16.5136 24.122 15.4956C26.3667 12.4156 27.6978 13.5119 27.6717 16.8007C27.6717 18.5756 26.8365 19.7763 23.4172 22.9607C20.4155 25.7536 20.285 26.6933 22.8951 26.6933C24.644 26.6933 30.308 19.9851 30.8039 17.3489C31.5086 13.6424 26.4971 10.6146 23.5216 12.9377C22.8429 13.4858 22.4254 13.5902 22.1643 13.3292C21.9033 13.0682 21.9555 12.5984 22.7908 12.1285C23.626 11.6587 24.905 11.2933 24.6179 10.5102C24.2264 9.46617 21.329 10.8234 20.9375 11.0584C20.546 11.2672 19.1365 12.1807 17.9358 12.1807C13.8118 12.1807 12.2457 13.4336 12.585 16.4353C12.7677 18.1058 12.6633 18.5756 11.7237 20.2462C4.3891 33.2448 14.3077 49.6627 29.6816 49.976C45.3165 50.3414 53.9039 39.2482 49.5189 24.4485ZM44.2463 21.734C41.4273 24.8662 41.0097 24.9967 38.6867 23.6394C36.8334 22.5431 35.3195 19.698 35.0063 16.6963C34.6931 13.538 36.3114 12.7028 39.0782 14.5821L40.4355 15.5217L41.7927 14.6343C45.6819 12.0502 50.7978 14.4777 44.2463 21.734Z" fill="#FF9500"/>
<path d="M17.1268 30.2692C17.3095 30.8173 17.701 32.6445 18.0143 34.3411C20.3373 47.0004 40.6445 46.7655 41.6885 34.0801C41.819 32.514 42.1061 31.1306 42.315 31.0001C44.1421 29.8255 39.2611 28.2594 35.8157 28.938C34.7455 29.1468 30.6475 29.199 25.7665 29.0685C16.7353 28.8075 16.6831 28.8075 17.1268 30.2692ZM39.2611 31.1306V33.0621C39.2611 40.2401 26.4451 44.1814 22.1905 38.2824C20.7288 36.2726 20.755 35.0458 20.5462 31.2611C32.5529 30.8696 32.8401 30.9218 39.2611 31.1306Z" fill="#FF9500"/>
</svg>
