<svg width="16" height="16" viewBox="0 0 16 16" fill="none" xmlns="http://www.w3.org/2000/svg">
<path d="M7.99984 14.6665C11.6732 14.6665 14.6665 11.6732 14.6665 7.99984C14.6665 4.32651 11.6732 1.33317 7.99984 1.33317C4.32651 1.33317 1.33317 4.3265 1.33317 7.99984C1.33317 11.6732 4.3265 14.6665 7.99984 14.6665ZM8.49984 10.6665C8.49984 10.9398 8.27317 11.1665 7.99984 11.1665C7.72651 11.1665 7.49984 10.9398 7.49984 10.6665L7.49984 7.33317C7.49984 7.05984 7.72651 6.83317 7.99984 6.83317C8.27317 6.83317 8.49984 7.05984 8.49984 7.33317L8.49984 10.6665ZM7.38651 5.07984C7.41984 4.99317 7.46651 4.9265 7.52651 4.85984C7.59317 4.79984 7.66651 4.75317 7.74651 4.71984C7.82651 4.6865 7.91317 4.6665 7.99984 4.6665C8.08651 4.6665 8.17317 4.6865 8.25317 4.71984C8.33317 4.75317 8.40651 4.79984 8.47317 4.85984C8.53317 4.9265 8.57984 4.99317 8.61317 5.07984C8.64651 5.15984 8.66651 5.2465 8.66651 5.33317C8.66651 5.41984 8.64651 5.5065 8.61317 5.5865C8.57984 5.6665 8.53317 5.73984 8.47317 5.8065C8.40651 5.8665 8.33317 5.91317 8.25317 5.9465C8.09317 6.01317 7.90651 6.01317 7.74651 5.9465C7.66651 5.91317 7.59317 5.8665 7.52651 5.8065C7.46651 5.73984 7.41984 5.6665 7.38651 5.5865C7.35317 5.5065 7.33317 5.41984 7.33317 5.33317C7.33317 5.2465 7.35317 5.15984 7.38651 5.07984Z" fill="#4242FD"/>
</svg>
