<svg width="24" height="25" viewBox="0 0 24 25" fill="none" xmlns="http://www.w3.org/2000/svg">
<path d="M21.67 7.45003C21.03 5.28003 19.22 3.47003 17.05 2.83003C15.4 2.35003 14.26 2.39003 13.47 2.98003C12.52 3.69003 12.41 4.97003 12.41 5.88003V8.37003C12.41 10.83 13.53 12.08 15.73 12.08H18.6C19.5 12.08 20.79 11.97 21.5 11.02C22.11 10.24 22.16 9.10003 21.67 7.45003Z" fill="#34C759"/>
<path d="M18.91 13.86C18.65 13.56 18.27 13.39 17.88 13.39H14.3C12.54 13.39 11.11 11.96 11.11 10.2V6.62003C11.11 6.23003 10.94 5.85003 10.64 5.59003C10.35 5.33003 9.95001 5.21003 9.57 5.26003C7.22001 5.56003 5.06001 6.85003 3.65001 8.79003C2.23001 10.74 1.71001 13.12 2.16001 15.5C2.81001 18.94 5.56001 21.69 9.01001 22.34C9.56001 22.45 10.11 22.5 10.66 22.5C12.47 22.5 14.22 21.94 15.71 20.85C17.65 19.44 18.94 17.28 19.24 14.93C19.29 14.54 19.17 14.15 18.91 13.86Z" fill="#34C759"/>
</svg>
